<?xml version="1.0" encoding="UTF-8" standalone="no"?>
<svg
   xmlns:dc="http://purl.org/dc/elements/1.1/"
   xmlns:cc="http://creativecommons.org/ns#"
   xmlns:rdf="http://www.w3.org/1999/02/22-rdf-syntax-ns#"
   xmlns:svg="http://www.w3.org/2000/svg"
   xmlns="http://www.w3.org/2000/svg"
   xmlns:sodipodi="http://sodipodi.sourceforge.net/DTD/sodipodi-0.dtd"
   xmlns:inkscape="http://www.inkscape.org/namespaces/inkscape"
   version="1.1"
   id="Capa_1"
   x="0px"
   y="0px"
   viewBox="0 0 512 512"
   style="enable-background:new 0 0 512 512;"
   xml:space="preserve"
   sodipodi:docname="fire.svg"
   inkscape:version="1.0.1 (0767f8302a, 2020-10-17)"><metadata
   id="metadata3576"><rdf:RDF><cc:Work
       rdf:about=""><dc:format>image/svg+xml</dc:format><dc:type
         rdf:resource="http://purl.org/dc/dcmitype/StillImage" /></cc:Work></rdf:RDF></metadata><defs
   id="defs3574" /><sodipodi:namedview
   pagecolor="#ffffff"
   bordercolor="#666666"
   borderopacity="1"
   objecttolerance="10"
   gridtolerance="10"
   guidetolerance="10"
   inkscape:pageopacity="0"
   inkscape:pageshadow="2"
   inkscape:window-width="1853"
   inkscape:window-height="1025"
   id="namedview3572"
   showgrid="false"
   inkscape:zoom="0.85742188"
   inkscape:cx="171.42723"
   inkscape:cy="287.5704"
   inkscape:window-x="67"
   inkscape:window-y="27"
   inkscape:window-maximized="1"
   inkscape:current-layer="Capa_1" />
<path
   style="fill:#c85367;fill-opacity:1"
   d="M54.211,249.7c0,0,20.228,29.717,62.624,54.871c0,0-30.705-259.502,169.358-304.571  c-51.257,188.121,65.2,241.174,107.651,141.786c70.893,94.651,17.066,177.229,17.066,177.229  c29.069,4.188,53.487-27.57,53.487-27.57c0.218,3.912,0.34,7.851,0.34,11.818C464.738,418.545,371.283,512,256,512  S47.262,418.545,47.262,303.262C47.262,284.744,49.686,266.794,54.211,249.7z"
   id="path3533" />
<path
   style="fill:#b1384e;fill-opacity:1;opacity:1"
   d="M464.398,291.445c0,0-24.418,31.758-53.487,27.57c0,0,53.827-82.578-17.066-177.229  C351.394,241.174,234.937,188.121,286.194,0C275.479,2.414,265.431,5.447,256,9.018V512c115.283,0,208.738-93.455,208.738-208.738  C464.738,299.295,464.616,295.357,464.398,291.445z"
   id="path3535" />
<path
   style="fill:#fbb300;fill-opacity:1"
   d="M164.456,420.456C164.456,471.014,205.442,512,256,512s91.544-40.986,91.544-91.544  c0-27.061-11.741-51.379-30.408-68.138c-35.394,48.085-85.832-24.856-46.524-78.122  C270.612,274.196,164.456,287.499,164.456,420.456z"
   id="path3537" />
<path
   style="fill:#dd9e00;fill-opacity:1"
   d="M347.544,420.456c0-27.061-11.741-51.379-30.408-68.138c-35.394,48.085-85.832-24.856-46.524-78.122  c0,0-5.768,0.725-14.612,3.516V512C306.558,512,347.544,471.014,347.544,420.456z"
   id="path3539" />
<g
   id="g3541">
</g>
<g
   id="g3543">
</g>
<g
   id="g3545">
</g>
<g
   id="g3547">
</g>
<g
   id="g3549">
</g>
<g
   id="g3551">
</g>
<g
   id="g3553">
</g>
<g
   id="g3555">
</g>
<g
   id="g3557">
</g>
<g
   id="g3559">
</g>
<g
   id="g3561">
</g>
<g
   id="g3563">
</g>
<g
   id="g3565">
</g>
<g
   id="g3567">
</g>
<g
   id="g3569">
</g>
</svg>
