<?xml version="1.0" encoding="UTF-8" standalone="no"?>
<svg
   xmlns:dc="http://purl.org/dc/elements/1.1/"
   xmlns:cc="http://creativecommons.org/ns#"
   xmlns:rdf="http://www.w3.org/1999/02/22-rdf-syntax-ns#"
   xmlns:svg="http://www.w3.org/2000/svg"
   xmlns="http://www.w3.org/2000/svg"
   xmlns:sodipodi="http://sodipodi.sourceforge.net/DTD/sodipodi-0.dtd"
   xmlns:inkscape="http://www.inkscape.org/namespaces/inkscape"
   version="1.1"
   id="Capa_1"
   x="0px"
   y="0px"
   width="284.936px"
   height="284.936px"
   viewBox="0 0 284.936 284.936"
   style="enable-background:new 0 0 284.936 284.936;"
   xml:space="preserve"
   sodipodi:docname="double-arrow.svg"
   inkscape:version="1.0.1 (3bc2e813f5, 2020-09-07)"><metadata
   id="metadata1003"><rdf:RDF><cc:Work
       rdf:about=""><dc:format>image/svg+xml</dc:format><dc:type
         rdf:resource="http://purl.org/dc/dcmitype/StillImage" /></cc:Work></rdf:RDF></metadata><defs
   id="defs1001">
	

		
		
	</defs><sodipodi:namedview
   pagecolor="#ffffff"
   bordercolor="#666666"
   borderopacity="1"
   objecttolerance="10"
   gridtolerance="10"
   guidetolerance="10"
   inkscape:pageopacity="0"
   inkscape:pageshadow="2"
   inkscape:window-width="1853"
   inkscape:window-height="1025"
   id="namedview999"
   showgrid="false"
   inkscape:zoom="2.1044253"
   inkscape:cx="142.74636"
   inkscape:cy="169.8864"
   inkscape:window-x="67"
   inkscape:window-y="27"
   inkscape:window-maximized="1"
   inkscape:current-layer="Capa_1"
   inkscape:document-rotation="0" />
<path
   d="M 277.515,135.9 144.464,2.857 C 142.565,0.955 140.375,0 137.9,0 c -2.472,0 -4.659,0.955 -6.562,2.857 l -14.277,14.275 c -1.903,1.903 -2.853,4.089 -2.853,6.567 0,2.478 0.95,4.664 2.853,6.567 L 229.268,142.47 117.062,254.677 c -1.903,1.903 -2.853,4.093 -2.853,6.564 0,2.477 0.95,4.667 2.853,6.57 l 14.277,14.271 c 1.902,1.905 4.089,2.854 6.562,2.854 2.478,0 4.665,-0.951 6.563,-2.854 L 277.515,149.038 c 1.902,-1.902 2.851,-4.093 2.851,-6.567 0,-2.474 -0.949,-4.664 -2.851,-6.571 z"
   id="path960"
   style="fill:#ffffff;fill-opacity:1;opacity:0.5" /><path
   d="m 170.732,142.471 c 0,-2.474 -0.947,-4.665 -2.857,-6.571 L 34.833,2.857 C 32.931,0.955 30.741,0 28.267,0 25.793,0 23.602,0.955 21.7,2.857 L 7.426,17.133 C 5.52,19.036 4.57,21.222 4.57,23.7 c 0,2.478 0.95,4.664 2.856,6.567 L 119.63,142.471 7.426,254.677 c -1.906,1.903 -2.856,4.093 -2.856,6.564 0,2.477 0.95,4.667 2.856,6.57 l 14.273,14.271 c 1.903,1.905 4.093,2.854 6.567,2.854 2.474,0 4.664,-0.951 6.567,-2.854 L 167.875,149.038 c 1.91,-1.902 2.857,-4.093 2.857,-6.567 z"
   id="path962"
   style="fill:#ffffff;fill-opacity:0.50196081" />
<g
   id="g968">
</g>
<g
   id="g970">
</g>
<g
   id="g972">
</g>
<g
   id="g974">
</g>
<g
   id="g976">
</g>
<g
   id="g978">
</g>
<g
   id="g980">
</g>
<g
   id="g982">
</g>
<g
   id="g984">
</g>
<g
   id="g986">
</g>
<g
   id="g988">
</g>
<g
   id="g990">
</g>
<g
   id="g992">
</g>
<g
   id="g994">
</g>
<g
   id="g996">
</g>
</svg>
