<?xml version="1.0" encoding="UTF-8" standalone="no"?>
<svg
   xmlns:dc="http://purl.org/dc/elements/1.1/"
   xmlns:cc="http://creativecommons.org/ns#"
   xmlns:rdf="http://www.w3.org/1999/02/22-rdf-syntax-ns#"
   xmlns:svg="http://www.w3.org/2000/svg"
   xmlns="http://www.w3.org/2000/svg"
   xmlns:sodipodi="http://sodipodi.sourceforge.net/DTD/sodipodi-0.dtd"
   xmlns:inkscape="http://www.inkscape.org/namespaces/inkscape"
   version="1.1"
   id="Capa_1"
   x="0px"
   y="0px"
   viewBox="0 0 533.00001 512"
   xml:space="preserve"
   sodipodi:docname="lock.svg"
   inkscape:version="1.0.1 (0767f8302a, 2020-10-17)"
   width="533"
   height="512"><metadata
   id="metadata935"><rdf:RDF><cc:Work
       rdf:about=""><dc:format>image/svg+xml</dc:format><dc:type
         rdf:resource="http://purl.org/dc/dcmitype/StillImage" /><dc:title /></cc:Work></rdf:RDF></metadata><defs
   id="defs933" /><sodipodi:namedview
   pagecolor="#ffffff"
   bordercolor="#666666"
   borderopacity="1"
   objecttolerance="10"
   gridtolerance="10"
   guidetolerance="10"
   inkscape:pageopacity="0"
   inkscape:pageshadow="2"
   inkscape:window-width="1853"
   inkscape:window-height="1025"
   id="namedview931"
   showgrid="false"
   inkscape:zoom="0.828125"
   inkscape:cx="296.99136"
   inkscape:cy="209.73962"
   inkscape:window-x="67"
   inkscape:window-y="27"
   inkscape:window-maximized="1"
   inkscape:current-layer="Capa_1"
   fit-margin-top="0"
   fit-margin-left="0"
   fit-margin-right="0"
   fit-margin-bottom="0"
   inkscape:document-rotation="0" />


<path
   style="fill:#455a64;fill-opacity:1;opacity:1"
   d="M 266.41729,0 C 189.87332,0.094 127.84432,62.122 127.75032,138.667 V 224 c 0,5.891 4.776,10.667 10.667,10.667 h 42.667 c 5.891,0 10.667,-4.776 10.667,-10.667 V 138.667 C 191.75032,97.429 225.18032,64 266.41729,64 c 41.237,0 74.667,33.429 74.667,74.667 v 98.167 c 0,5.891 4.776,10.667 10.667,10.667 h 42.666 c 5.891,0 10.667,-4.776 10.667,-10.667 V 138.667 C 404.99029,62.122 342.96129,0.094 266.41729,0 Z"
   id="path894"
   sodipodi:nodetypes="ccsssscsssssscc" /><path
   style="fill:#ffc107"
   d="m 138.5,213.333 h 256 c 29.455,0 53.333,23.878 53.333,53.333 v 192 C 447.833,488.122 423.955,512 394.5,512 h -256 c -29.455,0 -53.333,-23.878 -53.333,-53.333 v -192 c 0,-29.456 23.878,-53.334 53.333,-53.334 z"
   id="path896" /><path
   style="fill:#455a64"
   d="m 319.833,330.667 c 0.124,-29.455 -23.653,-53.434 -53.108,-53.558 -29.455,-0.124 -53.434,23.653 -53.558,53.108 -0.086,20.36 11.427,38.992 29.674,48.023 l -8.235,57.6 c -0.825,5.833 3.235,11.23 9.068,12.055 0.494,0.07 0.993,0.105 1.492,0.105 h 42.667 c 5.891,0.058 10.713,-4.67 10.771,-10.561 0.005,-0.535 -0.03,-1.069 -0.105,-1.599 l -8.235,-57.6 c 18.027,-9.027 29.455,-27.414 29.569,-47.573 z"
   id="path898" />
<g
   id="g900"
   transform="translate(-74.667)">
</g>
<g
   id="g902"
   transform="translate(-74.667)">
</g>
<g
   id="g904"
   transform="translate(-74.667)">
</g>
<g
   id="g906"
   transform="translate(-74.667)">
</g>
<g
   id="g908"
   transform="translate(-74.667)">
</g>
<g
   id="g910"
   transform="translate(-74.667)">
</g>
<g
   id="g912"
   transform="translate(-74.667)">
</g>
<g
   id="g914"
   transform="translate(-74.667)">
</g>
<g
   id="g916"
   transform="translate(-74.667)">
</g>
<g
   id="g918"
   transform="translate(-74.667)">
</g>
<g
   id="g920"
   transform="translate(-74.667)">
</g>
<g
   id="g922"
   transform="translate(-74.667)">
</g>
<g
   id="g924"
   transform="translate(-74.667)">
</g>
<g
   id="g926"
   transform="translate(-74.667)">
</g>
<g
   id="g928"
   transform="translate(-74.667)">
</g>
</svg>
