<?xml version="1.0" encoding="utf-8"?>
<!-- Generator: Adobe Illustrator 24.3.0, SVG Export Plug-In . SVG Version: 6.00 Build 0)  -->
<svg version="1.1"
	 id="svg949" inkscape:version="1.0.1 (0767f8302a, 2020-10-17)" sodipodi:docname="logo_about.svg" xmlns:cc="http://creativecommons.org/ns#" xmlns:dc="http://purl.org/dc/elements/1.1/" xmlns:inkscape="http://www.inkscape.org/namespaces/inkscape" xmlns:rdf="http://www.w3.org/1999/02/22-rdf-syntax-ns#" xmlns:sodipodi="http://sodipodi.sourceforge.net/DTD/sodipodi-0.dtd" xmlns:svg="http://www.w3.org/2000/svg"
	 xmlns="http://www.w3.org/2000/svg" xmlns:xlink="http://www.w3.org/1999/xlink" x="0px" y="0px" viewBox="0 0 60.9 60.4"
	 style="enable-background:new 0 0 60.9 60.4;" xml:space="preserve">
<style type="text/css">
	.st0{clip-path:url(#SVGID_1_);fill:url(#SVGID_2_);}
	.st1{fill:url(#SVGID_3_);}
</style>
<sodipodi:namedview  bordercolor="#666666" borderopacity="1.0" fit-margin-bottom="0" fit-margin-left="0" fit-margin-right="0" fit-margin-top="0" id="base" inkscape:current-layer="layer1" inkscape:cx="-157.48334" inkscape:cy="248.71555" inkscape:document-rotation="0" inkscape:document-units="mm" inkscape:pageopacity="0.0" inkscape:pageshadow="2" inkscape:window-height="1025" inkscape:window-maximized="1" inkscape:window-width="1853" inkscape:window-x="67" inkscape:window-y="27" inkscape:zoom="1.4" pagecolor="#ffffff" showgrid="false">
	</sodipodi:namedview>
<g>
	<g>
		<defs>
			<rect id="SVGID_5_" x="1.7" y="1.7" width="57.5" height="57"/>
		</defs>
		<clipPath id="SVGID_1_">
			<use xlink:href="#SVGID_5_"  style="overflow:visible;"/>
		</clipPath>
		<linearGradient id="SVGID_2_" gradientUnits="userSpaceOnUse" x1="1.6579" y1="19.201" x2="59.1268" y2="19.201">
			<stop  offset="1.260747e-03" style="stop-color:#3BBDEC"/>
			<stop  offset="1" style="stop-color:#67C0B1;stop-opacity:0.4"/>
		</linearGradient>
		<path class="st0" d="M27.2,1.7 M26.5,1.7h-9.9c-0.3,0-0.6,0.2-0.6,0.6l-1.9,11.4c0,0.4,0.3,0.7,0.6,0.7h11.8
			c0.4,0,0.6-0.3,0.6-0.6V2.3C27.2,2,26.9,1.7,26.5,1.7L26.5,1.7z M1.7,18.8v8.9c0,0.4,0.3,0.6,0.6,0.6h1.1c0.4,0,0.6,0.3,0.6,0.6
			v7.1c0,0.4,0.3,0.6,0.6,0.6h2.5c0.3,0,0.6-0.2,0.6-0.6l1.5-7.3c0.1-0.3,0.3-0.6,0.6-0.6h40.4c0.3,0,0.6,0.2,0.6,0.6l1.5,7.3
			c0.1,0.3,0.3,0.6,0.6,0.6h2.5c0.4,0,0.6-0.3,0.6-0.6V29c0-0.4,0.3-0.6,0.6-0.6h1.4c0.4,0,0.6-0.3,0.6-0.6v-8.9
			c0-0.4-0.3-0.6-0.6-0.6H2.3C2,18.1,1.7,18.4,1.7,18.8L1.7,18.8z"/>
	</g>
	<linearGradient id="SVGID_3_" gradientUnits="userSpaceOnUse" x1="7.6901" y1="30.1487" x2="53.3075" y2="30.1487">
		<stop  offset="0" style="stop-color:#3BBDEC"/>
		<stop  offset="1" style="stop-color:#67C0B1"/>
	</linearGradient>
	<path class="st1" d="M32.6,31.9 M43.2,1.7h-10c-0.4,0-0.6,0.3-0.6,0.6v11.4c0,0.4,0.3,0.6,0.6,0.6h11.8c0.4,0,0.7-0.3,0.6-0.7
		L43.8,2.3C43.8,1.9,43.5,1.7,43.2,1.7L43.2,1.7z M32.6,31.9V58c0,0.4,0.3,0.6,0.6,0.6h19.4c0.4,0,0.7-0.3,0.6-0.7l-4.9-26.1
		c0-0.3-0.3-0.6-0.6-0.6H33.2C32.9,31.2,32.6,31.5,32.6,31.9L32.6,31.9z M8.3,58.6h19.3c0.4,0,0.6-0.3,0.6-0.6V31.9
		c0-0.4-0.3-0.6-0.6-0.6H13.2c-0.3,0-0.6,0.2-0.6,0.6L7.7,57.9C7.7,58.3,7.9,58.6,8.3,58.6L8.3,58.6z"/>
</g>
</svg>
