<?xml version="1.0" encoding="UTF-8" standalone="no"?>
<svg
   xmlns:dc="http://purl.org/dc/elements/1.1/"
   xmlns:cc="http://creativecommons.org/ns#"
   xmlns:rdf="http://www.w3.org/1999/02/22-rdf-syntax-ns#"
   xmlns:svg="http://www.w3.org/2000/svg"
   xmlns="http://www.w3.org/2000/svg"
   xmlns:sodipodi="http://sodipodi.sourceforge.net/DTD/sodipodi-0.dtd"
   xmlns:inkscape="http://www.inkscape.org/namespaces/inkscape"
   width="103.72227mm"
   height="11.853363mm"
   viewBox="0 0 103.72227 11.853363"
   version="1.1"
   id="svg952"
   inkscape:version="1.0.1 (0767f8302a, 2020-10-17)"
   sodipodi:docname="logo_about_title.svg">
  <defs
     id="defs946" />
  <sodipodi:namedview
     id="base"
     pagecolor="#ffffff"
     bordercolor="#666666"
     borderopacity="1.0"
     inkscape:pageopacity="0.0"
     inkscape:pageshadow="2"
     inkscape:zoom="0.35"
     inkscape:cx="273.15346"
     inkscape:cy="562.40006"
     inkscape:document-units="mm"
     inkscape:current-layer="layer1"
     inkscape:document-rotation="0"
     showgrid="false"
     fit-margin-top="0"
     fit-margin-left="0"
     fit-margin-right="0"
     fit-margin-bottom="0"
     inkscape:window-width="1439"
     inkscape:window-height="1023"
     inkscape:window-x="117"
     inkscape:window-y="27"
     inkscape:window-maximized="0" />
  <metadata
     id="metadata949">
    <rdf:RDF>
      <cc:Work
         rdf:about="">
        <dc:format>image/svg+xml</dc:format>
        <dc:type
           rdf:resource="http://purl.org/dc/dcmitype/StillImage" />
        <dc:title></dc:title>
      </cc:Work>
    </rdf:RDF>
  </metadata>
  <g
     inkscape:label="Layer 1"
     inkscape:groupmode="layer"
     id="layer1"
     transform="translate(-33.56148,0.635015)">
    <g
       aria-label="ShadowTokens"
       id="text1091"
       style="font-size:14.8167px;line-height:1.25;font-family:sans-serif;-inkscape-font-specification:sans-serif;letter-spacing:-0.777875px;word-spacing:-2.66965px;white-space:pre;shape-inside:url(#rect1093);fill:#ffffff;fill-opacity:1;stroke:none;stroke-width:0.5;stroke-miterlimit:4;stroke-dasharray:none;stroke-opacity:1"
       transform="translate(-302.30649,-25.203937)">
      <path
         d="m 340.17965,36.422285 q -1.43722,0 -2.62256,-0.651935 -1.17052,-0.651935 -1.61502,-1.703921 -0.0741,-0.1778 -0.0741,-0.296334 0,-0.22225 0.16298,-0.385234 0.16299,-0.1778 0.4445,-0.237067 0.0445,-0.01482 0.14817,-0.01482 0.23707,0 0.4445,0.148167 0.22225,0.13335 0.32597,0.370418 0.2667,0.577851 1.05199,0.977902 0.78528,0.400051 1.73355,0.400051 1.11125,0 1.88172,-0.503768 0.77047,-0.518585 0.77047,-1.407587 0,-0.844551 -0.65194,-1.437219 -0.65193,-0.607485 -1.98543,-0.740835 -1.83728,-0.177801 -2.88926,-1.066803 -1.05199,-0.903819 -1.05199,-2.252138 0,-0.948269 0.5334,-1.629837 0.54822,-0.696385 1.48167,-1.051986 0.94827,-0.370417 2.11879,-0.370417 1.27424,0 2.14842,0.518584 0.87419,0.518585 1.48167,1.48167 0.1778,0.281517 0.1778,0.533401 0,0.325968 -0.29633,0.533401 -0.16298,0.103717 -0.38523,0.103717 -0.22225,0 -0.41487,-0.103717 -0.19262,-0.118533 -0.29634,-0.31115 -0.40005,-0.666752 -1.00753,-1.007536 -0.59267,-0.355601 -1.5113,-0.355601 -1.12607,0 -1.82246,0.444501 -0.69638,0.429685 -0.69638,1.25942 0,0.770468 0.6223,1.289053 0.6223,0.518584 2.2225,0.681568 1.77801,0.1778 2.75591,1.081619 0.9779,0.889002 0.9779,2.355855 0,1.066803 -0.57785,1.837271 -0.57785,0.755652 -1.54094,1.140886 -0.94827,0.370418 -2.0447,0.370418 z"
         style="fill:#ffffff;fill-opacity:1;stroke:none;stroke-width:0.5;stroke-miterlimit:4;stroke-dasharray:none;stroke-opacity:1"
         id="path1162" />
      <path
         d="m 349.79569,28.095299 q 1.02235,0 1.83727,0.444501 0.81492,0.444501 1.27424,1.30387 0.45931,0.844552 0.45931,2.044704 v 3.644909 q 0,0.325967 -0.22225,0.548217 -0.20743,0.207434 -0.5334,0.207434 -0.32596,0 -0.54822,-0.207434 -0.20743,-0.22225 -0.20743,-0.548217 v -3.644909 q 0,-1.200152 -0.65193,-1.807637 -0.63712,-0.622301 -1.70392,-0.622301 -0.62231,0 -1.14089,0.251883 -0.50377,0.251884 -0.8001,0.681569 -0.28152,0.429684 -0.28152,0.963085 v 4.17831 q 0,0.325967 -0.20743,0.548217 -0.20744,0.207434 -0.54822,0.207434 -0.32597,0 -0.54822,-0.207434 -0.20743,-0.22225 -0.20743,-0.548217 V 25.457927 q 0,-0.340785 0.20743,-0.548218 0.22225,-0.207434 0.54822,-0.207434 0.34078,0 0.54822,0.207434 0.20743,0.207433 0.20743,0.548218 v 3.630091 q 0.47413,-0.474134 1.12607,-0.726018 0.65193,-0.266701 1.39277,-0.266701 z"
         style="fill:#ffffff;fill-opacity:1;stroke:none;stroke-width:0.5;stroke-miterlimit:4;stroke-dasharray:none;stroke-opacity:1"
         id="path1164" />
      <path
         d="m 358.79082,28.110116 q 1.14088,0 2.05952,0.548218 0.93345,0.533401 1.46685,1.48167 0.54822,0.933452 0.54822,2.089154 v 3.304125 q 0,0.325967 -0.22225,0.548217 -0.20744,0.207434 -0.5334,0.207434 -0.32597,0 -0.54822,-0.207434 -0.20743,-0.22225 -0.20743,-0.548217 v -0.548218 q -0.51859,0.637118 -1.25942,0.992719 -0.74084,0.3556 -1.60021,0.3556 -1.0668,0 -1.94099,-0.533401 -0.85936,-0.533401 -1.36313,-1.466853 -0.48895,-0.948269 -0.48895,-2.103972 0,-1.155702 0.5334,-2.089154 0.5334,-0.948269 1.46685,-1.48167 0.94827,-0.548218 2.08916,-0.548218 z m 0,6.889765 q 0.74083,0 1.3335,-0.3556 0.60748,-0.370418 0.94827,-0.992719 0.34078,-0.637118 0.34078,-1.422404 0,-0.785285 -0.34078,-1.422403 -0.34079,-0.637118 -0.94827,-0.992719 -0.59267,-0.370417 -1.3335,-0.370417 -0.74084,0 -1.34832,0.370417 -0.59267,0.355601 -0.94827,0.992719 -0.34079,0.637118 -0.34079,1.422403 0,0.785286 0.34079,1.422404 0.3556,0.622301 0.94827,0.992719 0.60748,0.3556 1.34832,0.3556 z"
         style="fill:#ffffff;fill-opacity:1;stroke:none;stroke-width:0.5;stroke-miterlimit:4;stroke-dasharray:none;stroke-opacity:1"
         id="path1166" />
      <path
         d="m 371.34473,24.702275 q 0.34079,0 0.54822,0.207434 0.20743,0.207433 0.20743,0.548218 v 6.756415 q 0,1.155702 -0.54821,2.103971 -0.53341,0.933452 -1.46686,1.48167 -0.91863,0.533401 -2.05952,0.533401 -1.14089,0 -2.08915,-0.533401 -0.93346,-0.548218 -1.46686,-1.48167 -0.5334,-0.948269 -0.5334,-2.103971 0,-1.155703 0.48895,-2.089155 0.50377,-0.948269 1.36314,-1.48167 0.87418,-0.533401 1.94099,-0.533401 0.85937,0 1.6002,0.355601 0.74084,0.3556 1.25942,0.992719 v -4.000509 q 0,-0.340785 0.20743,-0.548218 0.22225,-0.207434 0.54822,-0.207434 z m -3.31894,10.297606 q 0.74084,0 1.3335,-0.3556 0.60749,-0.370418 0.94827,-1.007536 0.34079,-0.637118 0.34079,-1.422403 0,-0.785285 -0.34079,-1.407587 -0.34078,-0.637118 -0.94827,-0.992719 -0.59266,-0.370417 -1.3335,-0.370417 -0.74083,0 -1.34832,0.370417 -0.59267,0.355601 -0.94827,0.992719 -0.34078,0.622302 -0.34078,1.407587 0,0.785285 0.34078,1.422403 0.3556,0.637118 0.94827,1.007536 0.60749,0.3556 1.34832,0.3556 z"
         style="fill:#ffffff;fill-opacity:1;stroke:none;stroke-width:0.5;stroke-miterlimit:4;stroke-dasharray:none;stroke-opacity:1"
         id="path1168" />
      <path
         d="m 377.66591,36.333384 q -1.18534,0 -2.11879,-0.518584 -0.93345,-0.533401 -1.45204,-1.466853 -0.51858,-0.933453 -0.51858,-2.118789 0,-1.200152 0.51858,-2.133604 0.51859,-0.933452 1.45204,-1.452037 0.93345,-0.533401 2.11879,-0.533401 1.17052,0 2.08915,0.533401 0.93346,0.518585 1.45204,1.452037 0.5334,0.933452 0.5334,2.133604 0,1.185336 -0.51858,2.118789 -0.51859,0.933452 -1.45204,1.466853 -0.91864,0.518584 -2.10397,0.518584 z m 0,-1.333503 q 0.75565,0 1.34832,-0.3556 0.60748,-0.355601 0.93345,-0.977903 0.34078,-0.637118 0.34078,-1.43722 0,-0.800101 -0.34078,-1.437219 -0.32597,-0.637119 -0.93345,-0.992719 -0.59267,-0.355601 -1.34832,-0.355601 -0.75565,0 -1.36314,0.355601 -0.59267,0.3556 -0.93345,0.992719 -0.34078,0.637118 -0.34078,1.437219 0,0.800102 0.34078,1.43722 0.34078,0.622302 0.93345,0.977903 0.60749,0.3556 1.36314,0.3556 z"
         style="fill:#ffffff;fill-opacity:1;stroke:none;stroke-width:0.5;stroke-miterlimit:4;stroke-dasharray:none;stroke-opacity:1"
         id="path1170" />
      <path
         d="m 391.40076,28.169383 q 0.31115,0 0.45932,0.162983 0.16298,0.162984 0.16298,0.444501 0,0.237068 -0.0741,0.429685 l -2.19288,6.578614 q -0.0741,0.207434 -0.2667,0.355601 -0.19261,0.133351 -0.42968,0.133351 -0.25189,0 -0.45932,-0.133351 -0.19262,-0.148167 -0.25188,-0.355601 l -1.45204,-5.378462 -1.52612,5.378462 q -0.0741,0.207434 -0.28152,0.355601 -0.19261,0.133351 -0.42968,0.133351 -0.23707,0 -0.4445,-0.133351 -0.19262,-0.148167 -0.2667,-0.355601 l -2.19287,-6.578614 q -0.0593,-0.192617 -0.0593,-0.414868 0,-0.622301 0.6223,-0.622301 0.28152,0 0.45932,0.162983 0.19262,0.162984 0.31115,0.518585 l 1.6002,4.993228 1.51131,-5.111762 q 0.0741,-0.251884 0.25188,-0.400051 0.19262,-0.162983 0.48895,-0.162983 0.28152,0 0.45932,0.162983 0.19262,0.148167 0.2667,0.400051 l 1.3335,5.215479 1.62984,-5.096945 q 0.20743,-0.681568 0.77047,-0.681568 z"
         style="fill:#ffffff;fill-opacity:1;stroke:none;stroke-width:0.5;stroke-miterlimit:4;stroke-dasharray:none;stroke-opacity:1"
         id="path1172" />
      <path
         d="m 400.33546,24.702275 q 0.31115,0 0.50377,0.207434 0.20743,0.192617 0.20743,0.503767 0,0.311151 -0.20743,0.518585 -0.19262,0.192617 -0.50377,0.192617 h -3.18559 v 9.378971 q 0,0.325968 -0.22225,0.548218 -0.22225,0.222251 -0.54822,0.222251 -0.32596,0 -0.54822,-0.222251 -0.22225,-0.22225 -0.22225,-0.548218 v -9.378971 h -3.2004 q -0.31115,0 -0.51859,-0.192617 -0.19261,-0.207434 -0.19261,-0.518585 0,-0.31115 0.19261,-0.503767 0.20744,-0.207434 0.51859,-0.207434 z"
         style="fill:#ffffff;fill-opacity:1;stroke:none;stroke-width:0.5;stroke-miterlimit:4;stroke-dasharray:none;stroke-opacity:1"
         id="path1174" />
      <path
         d="m 403.25829,36.333384 q -1.18534,0 -2.11879,-0.518584 -0.93345,-0.533401 -1.45204,-1.466853 -0.51858,-0.933453 -0.51858,-2.118789 0,-1.200152 0.51858,-2.133604 0.51859,-0.933452 1.45204,-1.452037 0.93345,-0.533401 2.11879,-0.533401 1.17052,0 2.08915,0.533401 0.93346,0.518585 1.45204,1.452037 0.5334,0.933452 0.5334,2.133604 0,1.185336 -0.51858,2.118789 -0.51859,0.933452 -1.45204,1.466853 -0.91864,0.518584 -2.10397,0.518584 z m 0,-1.333503 q 0.75565,0 1.34832,-0.3556 0.60748,-0.355601 0.93345,-0.977903 0.34078,-0.637118 0.34078,-1.43722 0,-0.800101 -0.34078,-1.437219 -0.32597,-0.637119 -0.93345,-0.992719 -0.59267,-0.355601 -1.34832,-0.355601 -0.75565,0 -1.36314,0.355601 -0.59267,0.3556 -0.93345,0.992719 -0.34078,0.637118 -0.34078,1.437219 0,0.800102 0.34078,1.43722 0.34078,0.622302 0.93345,0.977903 0.60749,0.3556 1.36314,0.3556 z"
         style="fill:#ffffff;fill-opacity:1;stroke:none;stroke-width:0.5;stroke-miterlimit:4;stroke-dasharray:none;stroke-opacity:1"
         id="path1176" />
      <path
         d="m 414.93801,35.207315 q 0.16299,0.177801 0.16299,0.444501 0,0.325968 -0.2667,0.548218 -0.22225,0.1778 -0.47414,0.1778 -0.32596,0 -0.5334,-0.2667 l -2.81517,-3.481925 -0.74084,0.651935 v 2.266955 q 0,0.325968 -0.20743,0.533401 -0.19262,0.192618 -0.51858,0.192618 -0.32597,0 -0.53341,-0.192618 -0.19261,-0.207433 -0.19261,-0.533401 V 25.428293 q 0,-0.325967 0.19261,-0.518584 0.20744,-0.207434 0.53341,-0.207434 0.32596,0 0.51858,0.207434 0.20743,0.192617 0.20743,0.518584 v 6.030397 l 3.60046,-3.215224 q 0.19262,-0.192617 0.45932,-0.192617 0.31115,0 0.50377,0.237067 0.19261,0.192617 0.19261,0.459318 0,0.311151 -0.23706,0.503768 l -2.72628,2.429939 z"
         style="fill:#ffffff;fill-opacity:1;stroke:none;stroke-width:0.5;stroke-miterlimit:4;stroke-dasharray:none;stroke-opacity:1"
         id="path1178" />
      <path
         d="m 422.98465,32.095808 q 0,0.281517 -0.19262,0.474135 -0.19262,0.1778 -0.48895,0.1778 h -5.63035 q 0.16299,1.037169 0.93346,1.674287 0.78528,0.637118 1.91135,0.637118 0.4445,0 0.91863,-0.162984 0.48896,-0.162983 0.80011,-0.40005 0.20743,-0.162984 0.48895,-0.162984 0.28151,0 0.4445,0.148167 0.2667,0.22225 0.2667,0.503768 0,0.2667 -0.23707,0.444501 -0.50377,0.400051 -1.25942,0.651934 -0.74083,0.251884 -1.4224,0.251884 -1.21497,0 -2.17806,-0.518584 -0.96308,-0.533401 -1.5113,-1.466853 -0.5334,-0.933453 -0.5334,-2.118789 0,-1.185336 0.50377,-2.118788 0.51858,-0.948268 1.4224,-1.466853 0.91864,-0.533401 2.07434,-0.533401 1.14088,0 1.97062,0.503768 0.82974,0.503767 1.27424,1.407586 0.4445,0.903819 0.4445,2.074338 z m -3.68936,-2.711456 q -1.08162,0 -1.76319,0.592668 -0.66675,0.592668 -0.84455,1.585387 h 4.93396 q -0.13335,-0.992719 -0.74083,-1.585387 -0.60749,-0.592668 -1.58539,-0.592668 z"
         style="fill:#ffffff;fill-opacity:1;stroke:none;stroke-width:0.5;stroke-miterlimit:4;stroke-dasharray:none;stroke-opacity:1"
         id="path1180" />
      <path
         d="m 428.16447,28.095299 q 1.02235,0 1.83727,0.444501 0.81492,0.444501 1.27424,1.30387 0.45932,0.844552 0.45932,2.044704 v 3.644909 q 0,0.325967 -0.22225,0.548217 -0.20744,0.207434 -0.5334,0.207434 -0.32597,0 -0.54822,-0.207434 -0.20744,-0.22225 -0.20744,-0.548217 v -3.644909 q 0,-1.200152 -0.65193,-1.807637 -0.63712,-0.622301 -1.70392,-0.622301 -0.6223,0 -1.14089,0.251883 -0.50377,0.251884 -0.8001,0.681569 -0.28152,0.429684 -0.28152,0.963085 v 4.17831 q 0,0.325967 -0.20743,0.548217 -0.20743,0.207434 -0.54822,0.207434 -0.32597,0 -0.54822,-0.207434 -0.20743,-0.22225 -0.20743,-0.548217 v -6.608249 q 0,-0.340784 0.20743,-0.548218 0.22225,-0.207433 0.54822,-0.207433 0.34079,0 0.54822,0.207433 0.20743,0.207434 0.20743,0.548218 v 0.162984 q 0.47414,-0.474134 1.12607,-0.726018 0.65194,-0.266701 1.39277,-0.266701 z"
         style="fill:#ffffff;fill-opacity:1;stroke:none;stroke-width:0.5;stroke-miterlimit:4;stroke-dasharray:none;stroke-opacity:1"
         id="path1182" />
      <path
         d="m 436.40465,36.333384 q -1.00754,0 -1.89654,-0.31115 -0.889,-0.311151 -1.39277,-0.814919 -0.19262,-0.192617 -0.19262,-0.459318 0,-0.3556 0.29634,-0.577851 0.28151,-0.207434 0.51858,-0.207434 0.29633,0 0.56303,0.266701 0.28152,0.311151 0.84456,0.548218 0.56303,0.22225 1.20015,0.22225 0.84455,0 1.30387,-0.281517 0.47413,-0.281517 0.47413,-0.755652 0,-0.459317 -0.45931,-0.755651 -0.45932,-0.311151 -1.55576,-0.518585 -2.8448,-0.548218 -2.8448,-2.341038 0,-0.726019 0.42968,-1.229787 0.42968,-0.503767 1.12607,-0.755651 0.69638,-0.251884 1.48167,-0.251884 0.96308,0 1.71874,0.311151 0.77046,0.31115 1.21497,0.859368 0.19261,0.237067 0.19261,0.474135 0,0.251883 -0.25188,0.459317 -0.16298,0.118534 -0.41487,0.118534 -0.38523,0 -0.69638,-0.281517 -0.37042,-0.340785 -0.78529,-0.474135 -0.41487,-0.148167 -1.00753,-0.148167 -0.68157,0 -1.12607,0.237067 -0.42969,0.222251 -0.42969,0.637118 0,0.296334 0.14817,0.503768 0.14817,0.192617 0.56303,0.370418 0.41487,0.162983 1.20016,0.325967 1.61502,0.325968 2.28177,0.903819 0.68157,0.577851 0.68157,1.496487 0,0.681568 -0.37042,1.244602 -0.37042,0.548218 -1.09644,0.874186 -0.7112,0.31115 -1.71873,0.31115 z"
         style="fill:#ffffff;fill-opacity:1;stroke:none;stroke-width:0.5;stroke-miterlimit:4;stroke-dasharray:none;stroke-opacity:1"
         id="path1184" />
    </g>
  </g>
</svg>
