<?xml version="1.0" encoding="utf-8"?>
<!-- Generator: Adobe Illustrator 24.3.0, SVG Export Plug-In . SVG Version: 6.00 Build 0)  -->
<svg version="1.1"
	 id="svg6819" inkscape:version="1.0.1 (0767f8302a, 2020-10-17)" sodipodi:docname="logo.svg" xmlns:cc="http://creativecommons.org/ns#" xmlns:dc="http://purl.org/dc/elements/1.1/" xmlns:inkscape="http://www.inkscape.org/namespaces/inkscape" xmlns:rdf="http://www.w3.org/1999/02/22-rdf-syntax-ns#" xmlns:sodipodi="http://sodipodi.sourceforge.net/DTD/sodipodi-0.dtd" xmlns:svg="http://www.w3.org/2000/svg"
	 xmlns="http://www.w3.org/2000/svg" xmlns:xlink="http://www.w3.org/1999/xlink" x="0px" y="0px" viewBox="0 0 89.2 71.7"
	 style="enable-background:new 0 0 89.2 71.7;" xml:space="preserve">
<style type="text/css">
	.st0{clip-path:url(#SVGID_1_);fill:url(#SVGID_2_);}
	.st1{fill:url(#SVGID_3_);}
</style>
<sodipodi:namedview  bordercolor="#666666" borderopacity="1.0" fit-margin-bottom="2" fit-margin-left="5" fit-margin-right="5" fit-margin-top="2" id="base" inkscape:current-layer="layer1" inkscape:cx="120.83545" inkscape:cy="103.90065" inkscape:document-rotation="0" inkscape:document-units="mm" inkscape:pageopacity="0.0" inkscape:pageshadow="2" inkscape:window-height="1025" inkscape:window-maximized="1" inkscape:window-width="1853" inkscape:window-x="67" inkscape:window-y="27" inkscape:zoom="1.979899" pagecolor="#ffffff" showgrid="false" showguides="true">
	</sodipodi:namedview>
<g>
	<g>
		<defs>
			<rect id="SVGID_5_" x="10" y="1.5" width="69.2" height="68.7"/>
		</defs>
		<clipPath id="SVGID_1_">
			<use xlink:href="#SVGID_5_"  style="overflow:visible;"/>
		</clipPath>
		<linearGradient id="SVGID_2_" gradientUnits="userSpaceOnUse" x1="9.9393" y1="22.6206" x2="79.1768" y2="22.6206">
			<stop  offset="1.260747e-03" style="stop-color:#3BBDEC"/>
			<stop  offset="1" style="stop-color:#67C0B1;stop-opacity:0.4"/>
		</linearGradient>
		<path class="st0" d="M40.7,1.6 M39.9,1.5H28c-0.4,0-0.7,0.3-0.8,0.7L24.9,16c-0.1,0.5,0.3,0.9,0.8,0.9h14.2c0.4,0,0.8-0.4,0.8-0.8
			V2.3C40.7,1.9,40.3,1.5,39.9,1.5L39.9,1.5z M9.9,22.1v10.7c0,0.4,0.4,0.8,0.8,0.8h1.4c0.4,0,0.8,0.4,0.8,0.8v8.6
			c0,0.4,0.4,0.8,0.8,0.8h3.1c0.4,0,0.7-0.3,0.8-0.7l1.8-8.8c0.1-0.4,0.4-0.7,0.8-0.7h48.6c0.4,0,0.7,0.3,0.8,0.7l1.8,8.8
			c0.1,0.4,0.4,0.7,0.8,0.7h3.1c0.4,0,0.8-0.4,0.8-0.8v-8.6c0-0.4,0.4-0.8,0.8-0.8h1.7c0.4,0,0.8-0.4,0.8-0.8V22.1
			c0-0.4-0.4-0.8-0.8-0.8H10.7C10.3,21.3,9.9,21.7,9.9,22.1L9.9,22.1z"/>
	</g>
	<linearGradient id="SVGID_3_" gradientUnits="userSpaceOnUse" x1="17.2068" y1="35.8102" x2="72.1658" y2="35.8102">
		<stop  offset="0" style="stop-color:#3BBDEC"/>
		<stop  offset="1" style="stop-color:#67C0B1"/>
	</linearGradient>
	<path class="st1" d="M47.2,37.9 M60,1.5H48c-0.4,0-0.8,0.4-0.8,0.8v13.8c0,0.4,0.4,0.8,0.8,0.8h14.2c0.5,0,0.8-0.4,0.8-0.9
		L60.8,2.2C60.7,1.8,60.4,1.5,60,1.5L60,1.5z M47.2,37.9v31.4c0,0.4,0.4,0.8,0.8,0.8h23.4c0.5,0,0.8-0.4,0.8-0.9l-5.9-31.4
		c0-0.4-0.4-0.7-0.8-0.7H48C47.6,37.1,47.2,37.4,47.2,37.9L47.2,37.9z M18,70.1h23.3c0.4,0,0.8-0.4,0.8-0.8V37.9
		c0-0.4-0.4-0.8-0.8-0.8H23.9c-0.4,0-0.7,0.3-0.8,0.7l-5.9,31.4C17.2,69.7,17.5,70.1,18,70.1L18,70.1z"/>
</g>
</svg>
