<?xml version="1.0" encoding="UTF-8" standalone="no"?>
<svg
   xmlns:dc="http://purl.org/dc/elements/1.1/"
   xmlns:cc="http://creativecommons.org/ns#"
   xmlns:rdf="http://www.w3.org/1999/02/22-rdf-syntax-ns#"
   xmlns:svg="http://www.w3.org/2000/svg"
   xmlns="http://www.w3.org/2000/svg"
   xmlns:xlink="http://www.w3.org/1999/xlink"
   xmlns:sodipodi="http://sodipodi.sourceforge.net/DTD/sodipodi-0.dtd"
   xmlns:inkscape="http://www.inkscape.org/namespaces/inkscape"
   width="103.72227mm"
   height="23.853363mm"
   viewBox="0 0 103.72226 23.853364"
   version="1.1"
   id="svg6819"
   inkscape:version="1.0.1 (0767f8302a, 2020-10-17)"
   sodipodi:docname="logo_title.svg">
  <defs
     id="defs6813">
    <rect
       x="336.95691"
       y="260.61921"
       width="33.339835"
       height="148.10246"
       id="rect925" />
    <rect
       x="335.02417"
       y="22.715191"
       width="198.83466"
       height="33.095352"
       id="rect1093" />
    <rect
       x="193.46992"
       y="29.716482"
       width="142.44341"
       height="29.72736"
       id="rect1065" />
    <rect
       x="165.17014"
       y="103.22176"
       width="237.95589"
       height="37.773354"
       id="rect1173" />
    <rect
       x="190.67699"
       y="62.483837"
       width="132.21519"
       height="27.417997"
       id="rect1039" />
    <rect
       x="289.3728"
       y="66.849701"
       width="104.50868"
       height="49.779926"
       id="rect1523" />
    <rect
       x="162.85887"
       y="31.82003"
       width="172.54408"
       height="20.698256"
       id="rect1276" />
    <rect
       x="193.89343"
       y="65.910973"
       width="174.29366"
       height="18.997335"
       id="rect1245" />
    <rect
       x="160.35608"
       y="37.473557"
       width="171.61394"
       height="21.839088"
       id="rect1189" />
    <rect
       x="162.20209"
       y="29.033638"
       width="194.35536"
       height="21.002834"
       id="rect1158" />
    <rect
       x="185.43092"
       y="170.31102"
       width="168.72498"
       height="20.851833"
       id="rect1127" />
    <rect
       x="172.73515"
       y="149.41"
       width="110.81395"
       height="19.173964"
       id="rect976" />
    <rect
       x="192.90324"
       y="132.4691"
       width="112.39937"
       height="19.849852"
       id="rect970" />
    <rect
       x="192.13557"
       y="65.376953"
       width="113.1523"
       height="17.729897"
       id="rect914" />
    <linearGradient
       inkscape:collect="always"
       id="linearGradient914">
      <stop
         style="stop-color:#20dfe9;stop-opacity:1"
         offset="0"
         id="stop908" />
      <stop
         style="stop-color:#055ac4;stop-opacity:1"
         offset="0.46054721"
         id="stop910" />
      <stop
         style="stop-color:#000000;stop-opacity:1"
         offset="1"
         id="stop912" />
    </linearGradient>
    <linearGradient
       inkscape:collect="always"
       id="linearGradient900">
      <stop
         style="stop-color:#df6a65;stop-opacity:1"
         offset="0"
         id="stop894" />
      <stop
         style="stop-color:#b03b6a;stop-opacity:1"
         offset="0.48091328"
         id="stop896" />
      <stop
         style="stop-color:#320d03;stop-opacity:1"
         offset="1"
         id="stop898" />
    </linearGradient>
    <linearGradient
       inkscape:collect="always"
       id="linearGradient886">
      <stop
         style="stop-color:#20dfe9;stop-opacity:1"
         offset="0"
         id="stop880" />
      <stop
         style="stop-color:#055ac4;stop-opacity:1"
         offset="0.45588866"
         id="stop882" />
      <stop
         style="stop-color:#000000;stop-opacity:1"
         offset="1"
         id="stop884" />
    </linearGradient>
    <rect
       x="158.19559"
       y="218.81546"
       width="1.0161266"
       height="25.201605"
       id="rect8608" />
    <rect
       x="184.15672"
       y="45.628918"
       width="115.03224"
       height="24.890982"
       id="rect8594" />
    <linearGradient
       inkscape:collect="always"
       xlink:href="#linearGradient900"
       id="linearGradient7999-0-3"
       x1="8.8801918"
       y1="62.542507"
       x2="58.839134"
       y2="24.9468"
       gradientUnits="userSpaceOnUse"
       gradientTransform="matrix(1.5978612,0,0,1.5978612,87.810907,332.93765)" />
    <linearGradient
       inkscape:collect="always"
       xlink:href="#linearGradient914"
       id="linearGradient8025-5-3"
       gradientUnits="userSpaceOnUse"
       gradientTransform="matrix(0,-0.2420158,0.2420158,0,772.40746,1199.6862)"
       x1="3334.5559"
       y1="-2437.4919"
       x2="3083.7195"
       y2="-2773.7317" />
    <linearGradient
       inkscape:collect="always"
       xlink:href="#linearGradient900"
       id="linearGradient8352-9"
       x1="31.497665"
       y1="-156.55612"
       x2="44.914368"
       y2="-158.65083"
       gradientUnits="userSpaceOnUse"
       gradientTransform="matrix(1.5978612,2.3838032e-8,-2.3838032e-8,1.5978612,-303.70296,-118.64602)" />
    <linearGradient
       inkscape:collect="always"
       xlink:href="#linearGradient886"
       id="linearGradient8360-0"
       x1="-64.577995"
       y1="-120.5733"
       x2="-53.835075"
       y2="-131.20544"
       gradientUnits="userSpaceOnUse"
       gradientTransform="matrix(1.5978612,0,0,1.5978612,-316.58259,78.024573)" />
    <rect
       x="184.15672"
       y="45.628918"
       width="383.17624"
       height="69.436539"
       id="rect8594-0" />
    <rect
       x="184.15672"
       y="45.628918"
       width="383.17624"
       height="69.436539"
       id="rect916" />
    <rect
       x="184.15672"
       y="45.628918"
       width="115.03224"
       height="24.890982"
       id="rect894" />
    <rect
       x="184.15672"
       y="45.628918"
       width="115.03224"
       height="24.890982"
       id="rect902" />
    <rect
       x="184.15672"
       y="45.628918"
       width="115.03224"
       height="24.890982"
       id="rect910" />
    <rect
       x="172.73515"
       y="149.41"
       width="110.81395"
       height="19.173964"
       id="rect976-8" />
    <rect
       x="172.73515"
       y="149.41"
       width="110.81395"
       height="19.173964"
       id="rect989" />
    <rect
       x="172.73515"
       y="149.41"
       width="110.81395"
       height="19.173964"
       id="rect976-0" />
    <rect
       x="172.73515"
       y="149.41"
       width="110.81395"
       height="19.173964"
       id="rect989-8" />
    <rect
       x="162.85887"
       y="31.82003"
       width="172.54408"
       height="20.698256"
       id="rect1276-8" />
    <rect
       x="162.85887"
       y="31.82003"
       width="172.54408"
       height="20.698256"
       id="rect1294" />
    <rect
       x="162.85887"
       y="31.82003"
       width="172.54408"
       height="20.698256"
       id="rect1276-1" />
    <rect
       x="162.85887"
       y="31.82003"
       width="172.54408"
       height="20.698256"
       id="rect1294-7" />
    <rect
       x="162.85887"
       y="31.82003"
       width="172.54408"
       height="20.698256"
       id="rect1276-8-0" />
    <rect
       x="162.85887"
       y="31.82003"
       width="172.54408"
       height="20.698256"
       id="rect1396" />
    <rect
       x="162.85887"
       y="31.82003"
       width="172.54408"
       height="20.698256"
       id="rect1276-8-0-6" />
    <rect
       x="162.85887"
       y="31.82003"
       width="172.54408"
       height="20.698256"
       id="rect1430" />
    <rect
       x="162.85887"
       y="31.82003"
       width="172.54408"
       height="20.698256"
       id="rect1276-8-2" />
    <rect
       x="162.85887"
       y="31.82003"
       width="172.54408"
       height="20.698256"
       id="rect1433" />
    <rect
       x="289.3728"
       y="66.849701"
       width="84.308838"
       height="45.098961"
       id="rect1523-3" />
    <rect
       x="289.3728"
       y="66.849701"
       width="69.472069"
       height="40.64159"
       id="rect1542" />
    <rect
       x="190.67699"
       y="62.483837"
       width="132.21519"
       height="27.417997"
       id="rect1039-3" />
    <rect
       x="190.67699"
       y="62.483837"
       width="132.21519"
       height="27.417997"
       id="rect1052" />
    <rect
       x="190.67699"
       y="62.483837"
       width="210.3425"
       height="37.209518"
       id="rect1039-4" />
    <rect
       x="190.67699"
       y="62.483837"
       width="132.21519"
       height="27.417997"
       id="rect1081" />
    <rect
       x="190.67699"
       y="62.483837"
       width="132.21519"
       height="27.417997"
       id="rect1039-3-4" />
    <rect
       x="190.67699"
       y="62.483837"
       width="132.21519"
       height="27.417997"
       id="rect1084" />
    <rect
       x="335.02417"
       y="22.715191"
       width="198.83466"
       height="33.095352"
       id="rect1093-5" />
    <rect
       x="335.02417"
       y="22.715191"
       width="198.83466"
       height="33.095352"
       id="rect1137" />
  </defs>
  <sodipodi:namedview
     id="base"
     pagecolor="#ffffff"
     bordercolor="#666666"
     borderopacity="1.0"
     inkscape:pageopacity="0.0"
     inkscape:pageshadow="2"
     inkscape:zoom="0.98994949"
     inkscape:cx="418.10514"
     inkscape:cy="15.708841"
     inkscape:document-units="mm"
     inkscape:current-layer="layer1"
     inkscape:document-rotation="0"
     showgrid="false"
     inkscape:window-width="1853"
     inkscape:window-height="1025"
     inkscape:window-x="67"
     inkscape:window-y="27"
     inkscape:window-maximized="1"
     fit-margin-top="6"
     fit-margin-left="0"
     fit-margin-right="0"
     fit-margin-bottom="6"
     showguides="true" />
  <metadata
     id="metadata6816">
    <rdf:RDF>
      <cc:Work
         rdf:about="">
        <dc:format>image/svg+xml</dc:format>
        <dc:type
           rdf:resource="http://purl.org/dc/dcmitype/StillImage" />
        <dc:title></dc:title>
      </cc:Work>
    </rdf:RDF>
  </metadata>
  <g
     inkscape:label="Layer 1"
     inkscape:groupmode="layer"
     id="layer1"
     transform="translate(-335.86797,-18.568922)">
    <rect
       style="fill:#000000;stroke-width:2.86625;stroke-linecap:round;stroke-linejoin:bevel;paint-order:stroke markers fill"
       id="rect973"
       width="863.52472"
       height="681.13806"
       x="-77.932137"
       y="185.56607"
       ry="3.0960613e-11"
       inkscape:export-filename="/home/ryan/Desktop/shadowtokens.png"
       inkscape:export-xdpi="96"
       inkscape:export-ydpi="96" />
    <text
       xml:space="preserve"
       id="text8606"
       style="font-size:10.5833px;line-height:1.25;font-family:sans-serif;-inkscape-font-specification:sans-serif;white-space:pre;shape-inside:url(#rect8608);" />
    <g
       id="g979"
       transform="matrix(4.2464261,0,0,4.2464261,-244.78717,-1234.1089)">
      <path
         d="m 182.34431,412.92393 a 40.177654,40.177654 0 0 0 -80.35522,-5e-5 20.088841,20.088841 0 0 0 40.17768,0 20.088834,20.088834 0 0 1 40.17754,5e-5"
         fill="#ffffff"
         id="path5475-2-6-4-0-8-6"
         style="display:inline;fill:url(#linearGradient7999-0-3);fill-opacity:1;stroke:none;stroke-width:1.36134;stroke-miterlimit:4;stroke-dasharray:none;stroke-opacity:1" />
      <path
         d="m 101.98913,412.39525 a 40.177654,40.177654 0 0 0 80.35525,6e-5 20.088824,20.088824 0 0 0 -40.17761,0 20.088837,20.088837 0 0 1 -40.17764,-6e-5"
         fill="#ffffff"
         id="path5475-8-1-7-5-2"
         style="display:inline;fill:url(#linearGradient8025-5-3);fill-opacity:1;stroke:none;stroke-width:3.19572;stroke-miterlimit:4;stroke-dasharray:none;stroke-opacity:1" />
      <circle
         cy="-370.23584"
         id="circle5479-0-6-0-4-6"
         cx="-243.56137"
         style="display:inline;fill:#000000;fill-opacity:1;stroke:url(#linearGradient8352-9);stroke-width:3.19572;stroke-miterlimit:4;stroke-dasharray:none;stroke-opacity:1"
         transform="matrix(0.57620347,-0.81730628,-0.81730628,-0.57620347,0,0)"
         r="9.3329325" />
      <circle
         cy="-121.97628"
         r="9.3273592"
         id="circle5479-1-4-8-2-9-1"
         cx="-412.39545"
         style="display:inline;fill:#000000;fill-opacity:1;stroke:url(#linearGradient8360-0);stroke-width:3.19572;stroke-miterlimit:4;stroke-dasharray:none;stroke-opacity:1"
         transform="matrix(0,-1,-1,0,0,0)" />
    </g>
    <text
       xml:space="preserve"
       id="text8592-8"
       style="font-style:normal;font-variant:normal;font-weight:normal;font-stretch:normal;font-size:51.8583px;line-height:1.25;font-family:'Courier New';-inkscape-font-specification:'Courier New';white-space:pre;shape-inside:url(#rect8594-0);fill:#ffffff;"
       transform="matrix(1.4761107,0,0,1.4761107,-185.38095,651.09319)"><tspan
         x="184.15625"
         y="91.771258"><tspan
           style="font-style:normal;font-variant:normal;font-weight:normal;font-stretch:normal;font-size:51.8583px;font-family:'Courier New';-inkscape-font-specification:'Courier New';fill:#ffffff">Shadowtokens</tspan></tspan></text>
    <g
       aria-label="ShadowTokens"
       id="text1091"
       style="font-size:14.8167px;line-height:1.25;font-family:sans-serif;-inkscape-font-specification:sans-serif;letter-spacing:-0.777875px;word-spacing:-2.66965px;white-space:pre;shape-inside:url(#rect1093);fill:#ffffff;fill-opacity:1;stroke:none;stroke-width:0.5;stroke-miterlimit:4;stroke-dasharray:none;stroke-opacity:1">
      <path
         d="m 340.17965,36.422285 q -1.43722,0 -2.62256,-0.651935 -1.17052,-0.651935 -1.61502,-1.703921 -0.0741,-0.1778 -0.0741,-0.296334 0,-0.22225 0.16298,-0.385234 0.16299,-0.1778 0.4445,-0.237067 0.0445,-0.01482 0.14817,-0.01482 0.23707,0 0.4445,0.148167 0.22225,0.13335 0.32597,0.370418 0.2667,0.577851 1.05199,0.977902 0.78528,0.400051 1.73355,0.400051 1.11125,0 1.88172,-0.503768 0.77047,-0.518585 0.77047,-1.407587 0,-0.844551 -0.65194,-1.437219 -0.65193,-0.607485 -1.98543,-0.740835 -1.83728,-0.177801 -2.88926,-1.066803 -1.05199,-0.903819 -1.05199,-2.252138 0,-0.948269 0.5334,-1.629837 0.54822,-0.696385 1.48167,-1.051986 0.94827,-0.370417 2.11879,-0.370417 1.27424,0 2.14842,0.518584 0.87419,0.518585 1.48167,1.48167 0.1778,0.281517 0.1778,0.533401 0,0.325968 -0.29633,0.533401 -0.16298,0.103717 -0.38523,0.103717 -0.22225,0 -0.41487,-0.103717 -0.19262,-0.118533 -0.29634,-0.31115 -0.40005,-0.666752 -1.00753,-1.007536 -0.59267,-0.355601 -1.5113,-0.355601 -1.12607,0 -1.82246,0.444501 -0.69638,0.429685 -0.69638,1.25942 0,0.770468 0.6223,1.289053 0.6223,0.518584 2.2225,0.681568 1.77801,0.1778 2.75591,1.081619 0.9779,0.889002 0.9779,2.355855 0,1.066803 -0.57785,1.837271 -0.57785,0.755652 -1.54094,1.140886 -0.94827,0.370418 -2.0447,0.370418 z"
         style="fill:#ffffff;fill-opacity:1;stroke:none;stroke-width:0.5;stroke-miterlimit:4;stroke-dasharray:none;stroke-opacity:1"
         id="path1162" />
      <path
         d="m 349.79569,28.095299 q 1.02235,0 1.83727,0.444501 0.81492,0.444501 1.27424,1.30387 0.45931,0.844552 0.45931,2.044704 v 3.644909 q 0,0.325967 -0.22225,0.548217 -0.20743,0.207434 -0.5334,0.207434 -0.32596,0 -0.54822,-0.207434 -0.20743,-0.22225 -0.20743,-0.548217 v -3.644909 q 0,-1.200152 -0.65193,-1.807637 -0.63712,-0.622301 -1.70392,-0.622301 -0.62231,0 -1.14089,0.251883 -0.50377,0.251884 -0.8001,0.681569 -0.28152,0.429684 -0.28152,0.963085 v 4.17831 q 0,0.325967 -0.20743,0.548217 -0.20744,0.207434 -0.54822,0.207434 -0.32597,0 -0.54822,-0.207434 -0.20743,-0.22225 -0.20743,-0.548217 V 25.457927 q 0,-0.340785 0.20743,-0.548218 0.22225,-0.207434 0.54822,-0.207434 0.34078,0 0.54822,0.207434 0.20743,0.207433 0.20743,0.548218 v 3.630091 q 0.47413,-0.474134 1.12607,-0.726018 0.65193,-0.266701 1.39277,-0.266701 z"
         style="fill:#ffffff;fill-opacity:1;stroke:none;stroke-width:0.5;stroke-miterlimit:4;stroke-dasharray:none;stroke-opacity:1"
         id="path1164" />
      <path
         d="m 358.79082,28.110116 q 1.14088,0 2.05952,0.548218 0.93345,0.533401 1.46685,1.48167 0.54822,0.933452 0.54822,2.089154 v 3.304125 q 0,0.325967 -0.22225,0.548217 -0.20744,0.207434 -0.5334,0.207434 -0.32597,0 -0.54822,-0.207434 -0.20743,-0.22225 -0.20743,-0.548217 v -0.548218 q -0.51859,0.637118 -1.25942,0.992719 -0.74084,0.3556 -1.60021,0.3556 -1.0668,0 -1.94099,-0.533401 -0.85936,-0.533401 -1.36313,-1.466853 -0.48895,-0.948269 -0.48895,-2.103972 0,-1.155702 0.5334,-2.089154 0.5334,-0.948269 1.46685,-1.48167 0.94827,-0.548218 2.08916,-0.548218 z m 0,6.889765 q 0.74083,0 1.3335,-0.3556 0.60748,-0.370418 0.94827,-0.992719 0.34078,-0.637118 0.34078,-1.422404 0,-0.785285 -0.34078,-1.422403 -0.34079,-0.637118 -0.94827,-0.992719 -0.59267,-0.370417 -1.3335,-0.370417 -0.74084,0 -1.34832,0.370417 -0.59267,0.355601 -0.94827,0.992719 -0.34079,0.637118 -0.34079,1.422403 0,0.785286 0.34079,1.422404 0.3556,0.622301 0.94827,0.992719 0.60748,0.3556 1.34832,0.3556 z"
         style="fill:#ffffff;fill-opacity:1;stroke:none;stroke-width:0.5;stroke-miterlimit:4;stroke-dasharray:none;stroke-opacity:1"
         id="path1166" />
      <path
         d="m 371.34473,24.702275 q 0.34079,0 0.54822,0.207434 0.20743,0.207433 0.20743,0.548218 v 6.756415 q 0,1.155702 -0.54821,2.103971 -0.53341,0.933452 -1.46686,1.48167 -0.91863,0.533401 -2.05952,0.533401 -1.14089,0 -2.08915,-0.533401 -0.93346,-0.548218 -1.46686,-1.48167 -0.5334,-0.948269 -0.5334,-2.103971 0,-1.155703 0.48895,-2.089155 0.50377,-0.948269 1.36314,-1.48167 0.87418,-0.533401 1.94099,-0.533401 0.85937,0 1.6002,0.355601 0.74084,0.3556 1.25942,0.992719 v -4.000509 q 0,-0.340785 0.20743,-0.548218 0.22225,-0.207434 0.54822,-0.207434 z m -3.31894,10.297606 q 0.74084,0 1.3335,-0.3556 0.60749,-0.370418 0.94827,-1.007536 0.34079,-0.637118 0.34079,-1.422403 0,-0.785285 -0.34079,-1.407587 -0.34078,-0.637118 -0.94827,-0.992719 -0.59266,-0.370417 -1.3335,-0.370417 -0.74083,0 -1.34832,0.370417 -0.59267,0.355601 -0.94827,0.992719 -0.34078,0.622302 -0.34078,1.407587 0,0.785285 0.34078,1.422403 0.3556,0.637118 0.94827,1.007536 0.60749,0.3556 1.34832,0.3556 z"
         style="fill:#ffffff;fill-opacity:1;stroke:none;stroke-width:0.5;stroke-miterlimit:4;stroke-dasharray:none;stroke-opacity:1"
         id="path1168" />
      <path
         d="m 377.66591,36.333384 q -1.18534,0 -2.11879,-0.518584 -0.93345,-0.533401 -1.45204,-1.466853 -0.51858,-0.933453 -0.51858,-2.118789 0,-1.200152 0.51858,-2.133604 0.51859,-0.933452 1.45204,-1.452037 0.93345,-0.533401 2.11879,-0.533401 1.17052,0 2.08915,0.533401 0.93346,0.518585 1.45204,1.452037 0.5334,0.933452 0.5334,2.133604 0,1.185336 -0.51858,2.118789 -0.51859,0.933452 -1.45204,1.466853 -0.91864,0.518584 -2.10397,0.518584 z m 0,-1.333503 q 0.75565,0 1.34832,-0.3556 0.60748,-0.355601 0.93345,-0.977903 0.34078,-0.637118 0.34078,-1.43722 0,-0.800101 -0.34078,-1.437219 -0.32597,-0.637119 -0.93345,-0.992719 -0.59267,-0.355601 -1.34832,-0.355601 -0.75565,0 -1.36314,0.355601 -0.59267,0.3556 -0.93345,0.992719 -0.34078,0.637118 -0.34078,1.437219 0,0.800102 0.34078,1.43722 0.34078,0.622302 0.93345,0.977903 0.60749,0.3556 1.36314,0.3556 z"
         style="fill:#ffffff;fill-opacity:1;stroke:none;stroke-width:0.5;stroke-miterlimit:4;stroke-dasharray:none;stroke-opacity:1"
         id="path1170" />
      <path
         d="m 391.40076,28.169383 q 0.31115,0 0.45932,0.162983 0.16298,0.162984 0.16298,0.444501 0,0.237068 -0.0741,0.429685 l -2.19288,6.578614 q -0.0741,0.207434 -0.2667,0.355601 -0.19261,0.133351 -0.42968,0.133351 -0.25189,0 -0.45932,-0.133351 -0.19262,-0.148167 -0.25188,-0.355601 l -1.45204,-5.378462 -1.52612,5.378462 q -0.0741,0.207434 -0.28152,0.355601 -0.19261,0.133351 -0.42968,0.133351 -0.23707,0 -0.4445,-0.133351 -0.19262,-0.148167 -0.2667,-0.355601 l -2.19287,-6.578614 q -0.0593,-0.192617 -0.0593,-0.414868 0,-0.622301 0.6223,-0.622301 0.28152,0 0.45932,0.162983 0.19262,0.162984 0.31115,0.518585 l 1.6002,4.993228 1.51131,-5.111762 q 0.0741,-0.251884 0.25188,-0.400051 0.19262,-0.162983 0.48895,-0.162983 0.28152,0 0.45932,0.162983 0.19262,0.148167 0.2667,0.400051 l 1.3335,5.215479 1.62984,-5.096945 q 0.20743,-0.681568 0.77047,-0.681568 z"
         style="fill:#ffffff;fill-opacity:1;stroke:none;stroke-width:0.5;stroke-miterlimit:4;stroke-dasharray:none;stroke-opacity:1"
         id="path1172" />
      <path
         d="m 400.33546,24.702275 q 0.31115,0 0.50377,0.207434 0.20743,0.192617 0.20743,0.503767 0,0.311151 -0.20743,0.518585 -0.19262,0.192617 -0.50377,0.192617 h -3.18559 v 9.378971 q 0,0.325968 -0.22225,0.548218 -0.22225,0.222251 -0.54822,0.222251 -0.32596,0 -0.54822,-0.222251 -0.22225,-0.22225 -0.22225,-0.548218 v -9.378971 h -3.2004 q -0.31115,0 -0.51859,-0.192617 -0.19261,-0.207434 -0.19261,-0.518585 0,-0.31115 0.19261,-0.503767 0.20744,-0.207434 0.51859,-0.207434 z"
         style="fill:#ffffff;fill-opacity:1;stroke:none;stroke-width:0.5;stroke-miterlimit:4;stroke-dasharray:none;stroke-opacity:1"
         id="path1174" />
      <path
         d="m 403.25829,36.333384 q -1.18534,0 -2.11879,-0.518584 -0.93345,-0.533401 -1.45204,-1.466853 -0.51858,-0.933453 -0.51858,-2.118789 0,-1.200152 0.51858,-2.133604 0.51859,-0.933452 1.45204,-1.452037 0.93345,-0.533401 2.11879,-0.533401 1.17052,0 2.08915,0.533401 0.93346,0.518585 1.45204,1.452037 0.5334,0.933452 0.5334,2.133604 0,1.185336 -0.51858,2.118789 -0.51859,0.933452 -1.45204,1.466853 -0.91864,0.518584 -2.10397,0.518584 z m 0,-1.333503 q 0.75565,0 1.34832,-0.3556 0.60748,-0.355601 0.93345,-0.977903 0.34078,-0.637118 0.34078,-1.43722 0,-0.800101 -0.34078,-1.437219 -0.32597,-0.637119 -0.93345,-0.992719 -0.59267,-0.355601 -1.34832,-0.355601 -0.75565,0 -1.36314,0.355601 -0.59267,0.3556 -0.93345,0.992719 -0.34078,0.637118 -0.34078,1.437219 0,0.800102 0.34078,1.43722 0.34078,0.622302 0.93345,0.977903 0.60749,0.3556 1.36314,0.3556 z"
         style="fill:#ffffff;fill-opacity:1;stroke:none;stroke-width:0.5;stroke-miterlimit:4;stroke-dasharray:none;stroke-opacity:1"
         id="path1176" />
      <path
         d="m 414.93801,35.207315 q 0.16299,0.177801 0.16299,0.444501 0,0.325968 -0.2667,0.548218 -0.22225,0.1778 -0.47414,0.1778 -0.32596,0 -0.5334,-0.2667 l -2.81517,-3.481925 -0.74084,0.651935 v 2.266955 q 0,0.325968 -0.20743,0.533401 -0.19262,0.192618 -0.51858,0.192618 -0.32597,0 -0.53341,-0.192618 -0.19261,-0.207433 -0.19261,-0.533401 V 25.428293 q 0,-0.325967 0.19261,-0.518584 0.20744,-0.207434 0.53341,-0.207434 0.32596,0 0.51858,0.207434 0.20743,0.192617 0.20743,0.518584 v 6.030397 l 3.60046,-3.215224 q 0.19262,-0.192617 0.45932,-0.192617 0.31115,0 0.50377,0.237067 0.19261,0.192617 0.19261,0.459318 0,0.311151 -0.23706,0.503768 l -2.72628,2.429939 z"
         style="fill:#ffffff;fill-opacity:1;stroke:none;stroke-width:0.5;stroke-miterlimit:4;stroke-dasharray:none;stroke-opacity:1"
         id="path1178" />
      <path
         d="m 422.98465,32.095808 q 0,0.281517 -0.19262,0.474135 -0.19262,0.1778 -0.48895,0.1778 h -5.63035 q 0.16299,1.037169 0.93346,1.674287 0.78528,0.637118 1.91135,0.637118 0.4445,0 0.91863,-0.162984 0.48896,-0.162983 0.80011,-0.40005 0.20743,-0.162984 0.48895,-0.162984 0.28151,0 0.4445,0.148167 0.2667,0.22225 0.2667,0.503768 0,0.2667 -0.23707,0.444501 -0.50377,0.400051 -1.25942,0.651934 -0.74083,0.251884 -1.4224,0.251884 -1.21497,0 -2.17806,-0.518584 -0.96308,-0.533401 -1.5113,-1.466853 -0.5334,-0.933453 -0.5334,-2.118789 0,-1.185336 0.50377,-2.118788 0.51858,-0.948268 1.4224,-1.466853 0.91864,-0.533401 2.07434,-0.533401 1.14088,0 1.97062,0.503768 0.82974,0.503767 1.27424,1.407586 0.4445,0.903819 0.4445,2.074338 z m -3.68936,-2.711456 q -1.08162,0 -1.76319,0.592668 -0.66675,0.592668 -0.84455,1.585387 h 4.93396 q -0.13335,-0.992719 -0.74083,-1.585387 -0.60749,-0.592668 -1.58539,-0.592668 z"
         style="fill:#ffffff;fill-opacity:1;stroke:none;stroke-width:0.5;stroke-miterlimit:4;stroke-dasharray:none;stroke-opacity:1"
         id="path1180" />
      <path
         d="m 428.16447,28.095299 q 1.02235,0 1.83727,0.444501 0.81492,0.444501 1.27424,1.30387 0.45932,0.844552 0.45932,2.044704 v 3.644909 q 0,0.325967 -0.22225,0.548217 -0.20744,0.207434 -0.5334,0.207434 -0.32597,0 -0.54822,-0.207434 -0.20744,-0.22225 -0.20744,-0.548217 v -3.644909 q 0,-1.200152 -0.65193,-1.807637 -0.63712,-0.622301 -1.70392,-0.622301 -0.6223,0 -1.14089,0.251883 -0.50377,0.251884 -0.8001,0.681569 -0.28152,0.429684 -0.28152,0.963085 v 4.17831 q 0,0.325967 -0.20743,0.548217 -0.20743,0.207434 -0.54822,0.207434 -0.32597,0 -0.54822,-0.207434 -0.20743,-0.22225 -0.20743,-0.548217 v -6.608249 q 0,-0.340784 0.20743,-0.548218 0.22225,-0.207433 0.54822,-0.207433 0.34079,0 0.54822,0.207433 0.20743,0.207434 0.20743,0.548218 v 0.162984 q 0.47414,-0.474134 1.12607,-0.726018 0.65194,-0.266701 1.39277,-0.266701 z"
         style="fill:#ffffff;fill-opacity:1;stroke:none;stroke-width:0.5;stroke-miterlimit:4;stroke-dasharray:none;stroke-opacity:1"
         id="path1182" />
      <path
         d="m 436.40465,36.333384 q -1.00754,0 -1.89654,-0.31115 -0.889,-0.311151 -1.39277,-0.814919 -0.19262,-0.192617 -0.19262,-0.459318 0,-0.3556 0.29634,-0.577851 0.28151,-0.207434 0.51858,-0.207434 0.29633,0 0.56303,0.266701 0.28152,0.311151 0.84456,0.548218 0.56303,0.22225 1.20015,0.22225 0.84455,0 1.30387,-0.281517 0.47413,-0.281517 0.47413,-0.755652 0,-0.459317 -0.45931,-0.755651 -0.45932,-0.311151 -1.55576,-0.518585 -2.8448,-0.548218 -2.8448,-2.341038 0,-0.726019 0.42968,-1.229787 0.42968,-0.503767 1.12607,-0.755651 0.69638,-0.251884 1.48167,-0.251884 0.96308,0 1.71874,0.311151 0.77046,0.31115 1.21497,0.859368 0.19261,0.237067 0.19261,0.474135 0,0.251883 -0.25188,0.459317 -0.16298,0.118534 -0.41487,0.118534 -0.38523,0 -0.69638,-0.281517 -0.37042,-0.340785 -0.78529,-0.474135 -0.41487,-0.148167 -1.00753,-0.148167 -0.68157,0 -1.12607,0.237067 -0.42969,0.222251 -0.42969,0.637118 0,0.296334 0.14817,0.503768 0.14817,0.192617 0.56303,0.370418 0.41487,0.162983 1.20016,0.325967 1.61502,0.325968 2.28177,0.903819 0.68157,0.577851 0.68157,1.496487 0,0.681568 -0.37042,1.244602 -0.37042,0.548218 -1.09644,0.874186 -0.7112,0.31115 -1.71873,0.31115 z"
         style="fill:#ffffff;fill-opacity:1;stroke:none;stroke-width:0.5;stroke-miterlimit:4;stroke-dasharray:none;stroke-opacity:1"
         id="path1184" />
    </g>
    <text
       xml:space="preserve"
       id="text923"
       style="line-height:1.25;font-family:sans-serif;font-size:14.81666667px;-inkscape-font-specification:'sans-serif Bold';letter-spacing:-0.777875px;word-spacing:-2.66964583px;font-weight:bold;white-space:pre;shape-inside:url(#rect925);" />
  </g>
</svg>
