<svg width="98" height="98" viewBox="0 0 98 98" fill="none" xmlns="http://www.w3.org/2000/svg">
<g filter="url(#filter0_d)">
<path fill-rule="evenodd" clip-rule="evenodd" d="M49.2331 94.476C74.4935 94.476 94.9711 73.9984 94.9711 48.738C94.9711 23.4776 74.4935 3 49.2331 3C23.9727 3 3.49512 23.4776 3.49512 48.738C3.49512 73.9984 23.9727 94.476 49.2331 94.476Z" fill="white"/>
<path fill-rule="evenodd" clip-rule="evenodd" d="M49.2331 94.476C74.4935 94.476 94.9711 73.9984 94.9711 48.738C94.9711 23.4776 74.4935 3 49.2331 3C23.9727 3 3.49512 23.4776 3.49512 48.738C3.49512 73.9984 23.9727 94.476 49.2331 94.476Z" stroke="#EDEFF3" stroke-width="1.3068"/>
</g>
<path d="M64.1094 47.167L63.4794 46.7134L64.4874 45.7936L63.7188 45.1888L64.7268 44.4202L64.059 43.9162L65.1174 38.7754L63.5298 34L53.3112 37.8178H44.8062L34.5876 34L33 38.7754L34.071 43.9162L33.3906 44.4202L34.3986 45.1888L33.63 45.7936L34.638 46.7134L34.008 47.167L35.457 48.868L33.2646 55.6972L35.2932 62.665L42.4374 60.6994L43.8234 61.8334L46.6458 63.7864H51.4716L54.294 61.8334L55.68 60.6994L62.8242 62.665L64.8654 55.6972L62.6604 48.868L64.1094 47.167Z" fill="#161616" stroke="#161616" stroke-width="0.5"/>
<path d="M42.4374 60.6995L35.2932 62.6651L33.2646 55.6973L42.4374 60.6995Z" fill="#E4761B" stroke="#E4761B" stroke-width="0.5" stroke-linecap="round" stroke-linejoin="round"/>
<path d="M64.8656 55.6973L62.8244 62.6651L55.6802 60.6995L64.8656 55.6973Z" fill="#E4761B" stroke="#E4761B" stroke-width="0.5" stroke-linecap="round" stroke-linejoin="round"/>
<path d="M62.6606 48.868L56.0708 46.9402L58.3766 46.3354L62.6606 48.868Z" fill="#763D16" stroke="#763D16" stroke-width="0.5" stroke-linecap="round" stroke-linejoin="round"/>
<path d="M35.457 48.868L39.7536 46.3354L42.0468 46.9402L35.457 48.868Z" fill="#763D16" stroke="#763D16" stroke-width="0.5" stroke-linecap="round" stroke-linejoin="round"/>
<path d="M34.6378 46.7136L34.3984 45.189L39.7534 46.3356L34.6378 46.7136Z" fill="#763D16" stroke="#763D16" stroke-width="0.5" stroke-linecap="round" stroke-linejoin="round"/>
<path d="M63.4795 46.7136L58.3765 46.3356L63.7189 45.189L63.4795 46.7136Z" fill="#763D16" stroke="#763D16" stroke-width="0.5" stroke-linecap="round" stroke-linejoin="round"/>
<path d="M63.4795 46.7134L62.6605 48.868L58.3765 46.3354L63.4795 46.7134Z" fill="#763D16" stroke="#763D16" stroke-width="0.5" stroke-linecap="round" stroke-linejoin="round"/>
<path d="M34.6382 46.7134L39.7538 46.3354L35.4572 48.868L34.6382 46.7134Z" fill="#763D16" stroke="#763D16" stroke-width="0.5" stroke-linecap="round" stroke-linejoin="round"/>
<path d="M58.3765 46.3352L64.0591 43.916L63.7189 45.1886L58.3765 46.3352Z" fill="#763D16" stroke="#763D16" stroke-width="0.5" stroke-linecap="round" stroke-linejoin="round"/>
<path d="M39.7534 46.3352L34.3984 45.1886L34.0708 43.916L39.7534 46.3352Z" fill="#763D16" stroke="#763D16" stroke-width="0.5" stroke-linecap="round" stroke-linejoin="round"/>
<path d="M44.8062 37.8179H53.3112L51.4086 42.9965L44.8062 37.8179Z" fill="#F6851B" stroke="#F6851B" stroke-width="0.5" stroke-linecap="round" stroke-linejoin="round"/>
<path d="M51.4086 42.9965H46.7088L44.8062 37.8179L51.4086 42.9965Z" fill="#F6851B" stroke="#F6851B" stroke-width="0.5" stroke-linecap="round" stroke-linejoin="round"/>
<path d="M64.0588 43.9164L58.3762 46.3356L58.2754 39.834L64.0588 43.9164Z" fill="#763D16" stroke="#763D16" stroke-width="0.5" stroke-linecap="round" stroke-linejoin="round"/>
<path d="M42.0466 46.9404L39.7534 46.3356L39.8416 39.834L42.0466 46.9404Z" fill="#763D16" stroke="#763D16" stroke-width="0.5" stroke-linecap="round" stroke-linejoin="round"/>
<path d="M39.8416 39.834L39.7534 46.3356L34.0708 43.9164L39.8416 39.834Z" fill="#763D16" stroke="#763D16" stroke-width="0.5" stroke-linecap="round" stroke-linejoin="round"/>
<path d="M58.2758 39.834L58.3766 46.3356L56.0708 46.9404L58.2758 39.834Z" fill="#763D16" stroke="#763D16" stroke-width="0.5" stroke-linecap="round" stroke-linejoin="round"/>
<path d="M46.7086 42.9964L34.5874 34L44.806 37.8178L46.7086 42.9964Z" fill="#E4761B" stroke="#E4761B" stroke-width="0.5" stroke-linecap="round" stroke-linejoin="round"/>
<path d="M63.5299 34L51.4087 42.9964L53.3113 37.8178L63.5299 34Z" fill="#E2761B" stroke="#E2761B" stroke-width="0.5" stroke-linecap="round" stroke-linejoin="round"/>
<path d="M55.6802 60.6995L59.0192 55.6973H64.8656L55.6802 60.6995Z" fill="#E4761B" stroke="#E4761B" stroke-width="0.5" stroke-linecap="round" stroke-linejoin="round"/>
<path d="M33.2646 55.6973H39.111L42.4374 60.6995L33.2646 55.6973Z" fill="#E4761B" stroke="#E4761B" stroke-width="0.5" stroke-linecap="round" stroke-linejoin="round"/>
<path d="M58.0615 49.9517L64.8655 55.6973H59.0191L58.0615 49.9517Z" fill="#F6851B" stroke="#F6851B" stroke-width="0.5" stroke-linecap="round" stroke-linejoin="round"/>
<path d="M40.056 49.9518L33.2646 55.6974L35.457 48.8682L40.056 49.9518Z" fill="#F6851B" stroke="#F6851B" stroke-width="0.5" stroke-linecap="round" stroke-linejoin="round"/>
<path d="M39.111 55.6973H33.2646L40.056 49.9517L39.111 55.6973Z" fill="#F6851B" stroke="#F6851B" stroke-width="0.5" stroke-linecap="round" stroke-linejoin="round"/>
<path d="M58.0615 49.9518L62.6605 48.8682L64.8655 55.6974L58.0615 49.9518Z" fill="#F6851B" stroke="#F6851B" stroke-width="0.5" stroke-linecap="round" stroke-linejoin="round"/>
<path d="M39.8418 39.834L46.7088 42.9966L42.0468 46.9404L39.8418 39.834Z" fill="#763D16" stroke="#763D16" stroke-width="0.5" stroke-linecap="round" stroke-linejoin="round"/>
<path d="M56.0707 46.9404L51.4087 42.9966L58.2757 39.834L56.0707 46.9404Z" fill="#763D16" stroke="#763D16" stroke-width="0.5" stroke-linecap="round" stroke-linejoin="round"/>
<path d="M62.6602 48.868L63.4792 46.7134L64.1092 47.167L62.6602 48.868Z" fill="#763D16" stroke="#763D16" stroke-width="0.5" stroke-linecap="round" stroke-linejoin="round"/>
<path d="M35.4568 48.868L34.0078 47.167L34.6378 46.7134L35.4568 48.868Z" fill="#763D16" stroke="#763D16" stroke-width="0.5" stroke-linecap="round" stroke-linejoin="round"/>
<path d="M63.4795 46.7136L63.7189 45.189L64.4875 45.7938L63.4795 46.7136Z" fill="#763D16" stroke="#763D16" stroke-width="0.5" stroke-linecap="round" stroke-linejoin="round"/>
<path d="M34.6379 46.7136L33.6299 45.7938L34.3985 45.189L34.6379 46.7136Z" fill="#763D16" stroke="#763D16" stroke-width="0.5" stroke-linecap="round" stroke-linejoin="round"/>
<path d="M33.3906 44.42L34.071 43.916L34.3986 45.1886L33.3906 44.42Z" fill="#763D16" stroke="#763D16" stroke-width="0.5" stroke-linecap="round" stroke-linejoin="round"/>
<path d="M64.7268 44.42L63.7188 45.1886L64.059 43.916L64.7268 44.42Z" fill="#763D16" stroke="#763D16" stroke-width="0.5" stroke-linecap="round" stroke-linejoin="round"/>
<path d="M35.457 48.8682L42.0468 46.9404L40.056 49.9518L35.457 48.8682Z" fill="#F6851B" stroke="#F6851B" stroke-width="0.5" stroke-linecap="round" stroke-linejoin="round"/>
<path d="M62.6606 48.8682L58.0616 49.9518L56.0708 46.9404L62.6606 48.8682Z" fill="#F6851B" stroke="#F6851B" stroke-width="0.5" stroke-linecap="round" stroke-linejoin="round"/>
<path d="M34.071 43.9162L33 38.7754L39.8418 39.8338L34.071 43.9162Z" fill="#763D16" stroke="#763D16" stroke-width="0.5" stroke-linecap="round" stroke-linejoin="round"/>
<path d="M58.2754 39.8338L65.1172 38.7754L64.0588 43.9162L58.2754 39.8338Z" fill="#763D16" stroke="#763D16" stroke-width="0.5" stroke-linecap="round" stroke-linejoin="round"/>
<path d="M42.0469 46.9404L46.7089 42.9966L47.1373 50.2668L42.0469 46.9404Z" fill="#E4761B" stroke="#E4761B" stroke-width="0.5" stroke-linecap="round" stroke-linejoin="round"/>
<path d="M56.0704 46.9404L58.0612 49.9518L50.98 50.2668L56.0704 46.9404Z" fill="#E4761B" stroke="#E4761B" stroke-width="0.5" stroke-linecap="round" stroke-linejoin="round"/>
<path d="M50.98 50.2668L51.4084 42.9966L56.0704 46.9404L50.98 50.2668Z" fill="#E4761B" stroke="#E4761B" stroke-width="0.5" stroke-linecap="round" stroke-linejoin="round"/>
<path d="M47.1374 50.2668L40.0562 49.9518L42.047 46.9404L47.1374 50.2668Z" fill="#E4761B" stroke="#E4761B" stroke-width="0.5" stroke-linecap="round" stroke-linejoin="round"/>
<path d="M63.5296 34L65.1172 38.7754L58.2754 39.8338L63.5296 34Z" fill="#763D16" stroke="#763D16" stroke-width="0.5" stroke-linecap="round" stroke-linejoin="round"/>
<path d="M34.5874 34L46.7086 42.9964L39.8416 39.8338L34.5874 34Z" fill="#763D16" stroke="#763D16" stroke-width="0.5" stroke-linecap="round" stroke-linejoin="round"/>
<path d="M58.2757 39.8338L51.4087 42.9964L63.5299 34L58.2757 39.8338Z" fill="#763D16" stroke="#763D16" stroke-width="0.5" stroke-linecap="round" stroke-linejoin="round"/>
<path d="M39.8418 39.8338L33 38.7754L34.5876 34L39.8418 39.8338Z" fill="#763D16" stroke="#763D16" stroke-width="0.5" stroke-linecap="round" stroke-linejoin="round"/>
<path d="M42.4372 60.6995L39.1108 55.6973L43.0294 55.7477L42.4372 60.6995Z" fill="#CD6116" stroke="#CD6116" stroke-width="0.5" stroke-linecap="round" stroke-linejoin="round"/>
<path d="M55.6801 60.6995L55.0879 55.7477L59.0191 55.6973L55.6801 60.6995Z" fill="#CD6116" stroke="#CD6116" stroke-width="0.5" stroke-linecap="round" stroke-linejoin="round"/>
<path d="M50.9804 50.2668H47.1374L46.709 42.9966L50.9804 50.2668Z" fill="#F6851B" stroke="#F6851B" stroke-width="0.5" stroke-linecap="round" stroke-linejoin="round"/>
<path d="M46.709 42.9966H51.4088L50.9804 50.2668L46.709 42.9966Z" fill="#F6851B" stroke="#F6851B" stroke-width="0.5" stroke-linecap="round" stroke-linejoin="round"/>
<path d="M43.8235 61.8332L42.4375 60.6992L46.4065 62.5766L43.8235 61.8332Z" fill="#C0AD9E" stroke="#C0AD9E" stroke-width="0.5" stroke-linecap="round" stroke-linejoin="round"/>
<path d="M51.7109 62.5766L55.6799 60.6992L54.2939 61.8332L51.7109 62.5766Z" fill="#C0AD9E" stroke="#C0AD9E" stroke-width="0.5" stroke-linecap="round" stroke-linejoin="round"/>
<path d="M46.3813 61.4048L46.4065 62.5766L42.4375 60.6992L46.3813 61.4048Z" fill="#D7C1B3" stroke="#D7C1B3" stroke-width="0.5" stroke-linecap="round" stroke-linejoin="round"/>
<path d="M51.7487 61.4048L55.6799 60.6992L51.7109 62.5766L51.7487 61.4048Z" fill="#D7C1B3" stroke="#D7C1B3" stroke-width="0.5" stroke-linecap="round" stroke-linejoin="round"/>
<path d="M40.0558 49.9517L43.0294 55.7477L39.1108 55.6973L40.0558 49.9517Z" fill="#F6851B" stroke="#F6851B" stroke-width="0.5" stroke-linecap="round" stroke-linejoin="round"/>
<path d="M59.0191 55.6973L55.0879 55.7477L58.0615 49.9517L59.0191 55.6973Z" fill="#F6851B" stroke="#F6851B" stroke-width="0.5" stroke-linecap="round" stroke-linejoin="round"/>
<path d="M40.0562 49.9517L42.929 52.8623L43.0298 55.7477L40.0562 49.9517Z" fill="#E4751F" stroke="#E4751F" stroke-width="0.5" stroke-linecap="round" stroke-linejoin="round"/>
<path d="M58.0615 49.9517L55.0879 55.7477L55.2013 52.8623L58.0615 49.9517Z" fill="#E4751F" stroke="#E4751F" stroke-width="0.5" stroke-linecap="round" stroke-linejoin="round"/>
<path d="M42.4375 60.6996L46.7089 58.6206L46.3813 61.4052L42.4375 60.6996Z" fill="#D7C1B3" stroke="#D7C1B3" stroke-width="0.5" stroke-linecap="round" stroke-linejoin="round"/>
<path d="M55.6801 60.6996L51.7489 61.4052L51.4087 58.6206L55.6801 60.6996Z" fill="#D7C1B3" stroke="#D7C1B3" stroke-width="0.5" stroke-linecap="round" stroke-linejoin="round"/>
<path d="M46.7089 58.6204L42.4375 60.6994L43.0297 55.7476L46.7089 58.6204Z" fill="#E4761B" stroke="#E4761B" stroke-width="0.5" stroke-linecap="round" stroke-linejoin="round"/>
<path d="M51.4087 58.6204L55.0879 55.7476L55.6801 60.6994L51.4087 58.6204Z" fill="#E4761B" stroke="#E4761B" stroke-width="0.5" stroke-linecap="round" stroke-linejoin="round"/>
<path d="M50.98 50.2667L58.0612 49.9517L55.201 52.8623L50.98 50.2667Z" fill="#CD6116" stroke="#CD6116" stroke-width="0.5" stroke-linecap="round" stroke-linejoin="round"/>
<path d="M42.929 52.8623L40.0562 49.9517L47.1374 50.2667L42.929 52.8623Z" fill="#CD6116" stroke="#CD6116" stroke-width="0.5" stroke-linecap="round" stroke-linejoin="round"/>
<path d="M47.1371 50.2666L45.4361 51.7156L42.9287 52.8622L47.1371 50.2666Z" fill="#CD6116" stroke="#CD6116" stroke-width="0.5" stroke-linecap="round" stroke-linejoin="round"/>
<path d="M55.201 52.8622L52.681 51.7156L50.98 50.2666L55.201 52.8622Z" fill="#CD6116" stroke="#CD6116" stroke-width="0.5" stroke-linecap="round" stroke-linejoin="round"/>
<path d="M55.0877 55.7477L51.6353 53.9081L55.2011 52.8623L55.0877 55.7477Z" fill="#F6851B" stroke="#F6851B" stroke-width="0.5" stroke-linecap="round" stroke-linejoin="round"/>
<path d="M43.0295 55.7477L42.9287 52.8623L46.4819 53.9081L43.0295 55.7477Z" fill="#F6851B" stroke="#F6851B" stroke-width="0.5" stroke-linecap="round" stroke-linejoin="round"/>
<path d="M46.4819 53.9082L42.9287 52.8624L45.4361 51.7158L46.4819 53.9082Z" fill="#233447" stroke="#233447" stroke-width="0.5" stroke-linecap="round" stroke-linejoin="round"/>
<path d="M51.6353 53.9082L52.6811 51.7158L55.2011 52.8624L51.6353 53.9082Z" fill="#233447" stroke="#233447" stroke-width="0.5" stroke-linecap="round" stroke-linejoin="round"/>
<path d="M52.681 51.7156L51.6352 53.908L50.98 50.2666L52.681 51.7156Z" fill="#CD6116" stroke="#CD6116" stroke-width="0.5" stroke-linecap="round" stroke-linejoin="round"/>
<path d="M45.436 51.7156L47.137 50.2666L46.4818 53.908L45.436 51.7156Z" fill="#CD6116" stroke="#CD6116" stroke-width="0.5" stroke-linecap="round" stroke-linejoin="round"/>
<path d="M54.2941 61.8335L51.4717 63.7865L51.7111 62.5769L54.2941 61.8335Z" fill="#C0AD9E" stroke="#C0AD9E" stroke-width="0.5" stroke-linecap="round" stroke-linejoin="round"/>
<path d="M46.4062 62.5769L46.6456 63.7865L43.8232 61.8335L46.4062 62.5769Z" fill="#C0AD9E" stroke="#C0AD9E" stroke-width="0.5" stroke-linecap="round" stroke-linejoin="round"/>
<path d="M51.6354 53.908L50.8164 52.5598L50.9802 50.2666L51.6354 53.908Z" fill="#E2761B" stroke="#E2761B" stroke-width="0.5" stroke-linecap="round" stroke-linejoin="round"/>
<path d="M46.4819 53.908L47.1371 50.2666L47.3009 52.5598L46.4819 53.908Z" fill="#E4751F" stroke="#E4751F" stroke-width="0.5" stroke-linecap="round" stroke-linejoin="round"/>
<path d="M50.98 50.2666L50.8162 52.5598H47.3008L50.98 50.2666Z" fill="#F6851B" stroke="#F6851B" stroke-width="0.5" stroke-linecap="round" stroke-linejoin="round"/>
<path d="M47.301 52.5598L47.1372 50.2666H50.9802L47.301 52.5598Z" fill="#F6851B" stroke="#F6851B" stroke-width="0.5" stroke-linecap="round" stroke-linejoin="round"/>
<path d="M51.6355 53.9082L55.0879 55.7478L51.4087 58.6206L51.6355 53.9082Z" fill="#F6851B" stroke="#F6851B" stroke-width="0.5" stroke-linecap="round" stroke-linejoin="round"/>
<path d="M46.709 58.6206L43.0298 55.7478L46.4822 53.9082L46.709 58.6206Z" fill="#F6851B" stroke="#F6851B" stroke-width="0.5" stroke-linecap="round" stroke-linejoin="round"/>
<path d="M46.4819 53.9082L47.3135 58.2048L46.7087 58.6206L46.4819 53.9082Z" fill="#F6851B" stroke="#F6851B" stroke-width="0.5" stroke-linecap="round" stroke-linejoin="round"/>
<path d="M51.4085 58.6206L50.8037 58.2048L51.6353 53.9082L51.4085 58.6206Z" fill="#F6851B" stroke="#F6851B" stroke-width="0.5" stroke-linecap="round" stroke-linejoin="round"/>
<path d="M50.8163 52.5596L51.6353 53.9078L50.8037 58.2044L50.8163 52.5596Z" fill="#E4751F" stroke="#E4751F" stroke-width="0.5" stroke-linecap="round" stroke-linejoin="round"/>
<path d="M47.3009 52.5596L47.3135 58.2044L46.4819 53.9078L47.3009 52.5596Z" fill="#E4751F" stroke="#E4751F" stroke-width="0.5" stroke-linecap="round" stroke-linejoin="round"/>
<path d="M47.3008 52.5596H50.8162L50.8036 58.2044L47.3008 52.5596Z" fill="#F6851B" stroke="#F6851B" stroke-width="0.5" stroke-linecap="round" stroke-linejoin="round"/>
<path d="M50.8036 58.2044H47.3134L47.3008 52.5596L50.8036 58.2044Z" fill="#F6851B" stroke="#F6851B" stroke-width="0.5" stroke-linecap="round" stroke-linejoin="round"/>
<path d="M51.7489 61.4048L51.7111 62.5766L51.4717 63.7862L51.7489 61.4048Z" fill="#C0AD9E" stroke="#C0AD9E" stroke-width="0.5" stroke-linecap="round" stroke-linejoin="round"/>
<path d="M46.6459 63.7862L46.4065 62.5766L46.3813 61.4048L46.6459 63.7862Z" fill="#C0AD9E" stroke="#C0AD9E" stroke-width="0.5" stroke-linecap="round" stroke-linejoin="round"/>
<path d="M46.3813 61.4051L46.6837 61.1279L46.6459 63.7865L46.3813 61.4051Z" fill="#C0AD9E" stroke="#C0AD9E" stroke-width="0.5" stroke-linecap="round" stroke-linejoin="round"/>
<path d="M51.4714 63.7865L51.4336 61.1279L51.7486 61.4051L51.4714 63.7865Z" fill="#C0AD9E" stroke="#C0AD9E" stroke-width="0.5" stroke-linecap="round" stroke-linejoin="round"/>
<path d="M46.646 63.7865L46.6838 61.1279H51.434L46.646 63.7865Z" fill="#C0AD9E" stroke="#C0AD9E" stroke-width="0.5" stroke-linecap="round" stroke-linejoin="round"/>
<path d="M51.434 61.1279L51.4718 63.7865H46.646L51.434 61.1279Z" fill="#C0AD9E" stroke="#C0AD9E" stroke-width="0.5" stroke-linecap="round" stroke-linejoin="round"/>
<path d="M51.4087 58.6206L51.7489 61.4052L51.4339 61.128L51.4087 58.6206Z" fill="#161616" stroke="#161616" stroke-width="0.5" stroke-linecap="round" stroke-linejoin="round"/>
<path d="M46.6837 61.128L46.3813 61.4052L46.7089 58.6206L46.6837 61.128Z" fill="#161616" stroke="#161616" stroke-width="0.5" stroke-linecap="round" stroke-linejoin="round"/>
<path d="M46.7088 58.6206L46.8978 59.2128L46.6836 61.128L46.7088 58.6206Z" fill="#161616" stroke="#161616" stroke-width="0.5" stroke-linecap="round" stroke-linejoin="round"/>
<path d="M51.4339 61.128L51.2197 59.2128L51.4087 58.6206L51.4339 61.128Z" fill="#161616" stroke="#161616" stroke-width="0.5" stroke-linecap="round" stroke-linejoin="round"/>
<path d="M47.276 58.7718L46.898 59.2128L46.709 58.6206L47.276 58.7718Z" fill="#161616" stroke="#161616" stroke-width="0.5" stroke-linecap="round" stroke-linejoin="round"/>
<path d="M51.4088 58.6206L51.2198 59.2128L50.8418 58.7718L51.4088 58.6206Z" fill="#161616" stroke="#161616" stroke-width="0.5" stroke-linecap="round" stroke-linejoin="round"/>
<path d="M50.8415 58.7716L50.8037 58.2046L51.4085 58.6204L50.8415 58.7716Z" fill="#161616" stroke="#161616" stroke-width="0.5" stroke-linecap="round" stroke-linejoin="round"/>
<path d="M46.709 58.6204L47.3138 58.2046L47.276 58.7716L46.709 58.6204Z" fill="#161616" stroke="#161616" stroke-width="0.5" stroke-linecap="round" stroke-linejoin="round"/>
<path d="M50.8039 58.2046L50.8417 58.7716H47.2759L50.8039 58.2046Z" fill="#161616" stroke="#161616" stroke-width="0.5" stroke-linecap="round" stroke-linejoin="round"/>
<path d="M47.2759 58.7716L47.3137 58.2046H50.8039L47.2759 58.7716Z" fill="#161616" stroke="#161616" stroke-width="0.5" stroke-linecap="round" stroke-linejoin="round"/>
<path d="M46.8979 59.2124H51.2197L51.4339 61.1276L46.8979 59.2124Z" fill="#161616" stroke="#161616" stroke-width="0.5" stroke-linecap="round" stroke-linejoin="round"/>
<path d="M51.4338 61.1276H46.6836L46.8978 59.2124L51.4338 61.1276Z" fill="#161616" stroke="#161616" stroke-width="0.5" stroke-linecap="round" stroke-linejoin="round"/>
<path d="M46.8979 59.2125L47.2759 58.7715H50.8417L46.8979 59.2125Z" fill="#161616" stroke="#161616" stroke-width="0.5" stroke-linecap="round" stroke-linejoin="round"/>
<path d="M50.8417 58.7715L51.2197 59.2125H46.8979L50.8417 58.7715Z" fill="#161616" stroke="#161616" stroke-width="0.5" stroke-linecap="round" stroke-linejoin="round"/>
<path d="M64.1094 47.167L63.4794 46.7134L64.4874 45.7936L63.7188 45.1888L64.7268 44.4202L64.059 43.9162L65.1174 38.7754L63.5298 34L53.3112 37.8178H44.8062L34.5876 34L33 38.7754L34.071 43.9162L33.3906 44.4202L34.3986 45.1888L33.63 45.7936L34.638 46.7134L34.008 47.167L35.457 48.868L33.2646 55.6972L35.2932 62.665L42.4374 60.6994L43.8234 61.8334L46.6458 63.7864H51.4716L54.294 61.8334L55.68 60.6994L62.8242 62.665L64.8654 55.6972L62.6604 48.868L64.1094 47.167Z" fill="#161616" stroke="#161616" stroke-width="0.5"/>
<path d="M42.4374 60.6995L35.2932 62.6651L33.2646 55.6973L42.4374 60.6995Z" fill="#E4761B" stroke="#E4761B" stroke-width="0.5" stroke-linecap="round" stroke-linejoin="round"/>
<path d="M64.8656 55.6973L62.8244 62.6651L55.6802 60.6995L64.8656 55.6973Z" fill="#E4761B" stroke="#E4761B" stroke-width="0.5" stroke-linecap="round" stroke-linejoin="round"/>
<path d="M62.6606 48.868L56.0708 46.9402L58.3766 46.3354L62.6606 48.868Z" fill="#763D16" stroke="#763D16" stroke-width="0.5" stroke-linecap="round" stroke-linejoin="round"/>
<path d="M35.457 48.868L39.7536 46.3354L42.0468 46.9402L35.457 48.868Z" fill="#763D16" stroke="#763D16" stroke-width="0.5" stroke-linecap="round" stroke-linejoin="round"/>
<path d="M34.6378 46.7136L34.3984 45.189L39.7534 46.3356L34.6378 46.7136Z" fill="#763D16" stroke="#763D16" stroke-width="0.5" stroke-linecap="round" stroke-linejoin="round"/>
<path d="M63.4795 46.7136L58.3765 46.3356L63.7189 45.189L63.4795 46.7136Z" fill="#763D16" stroke="#763D16" stroke-width="0.5" stroke-linecap="round" stroke-linejoin="round"/>
<path d="M63.4795 46.7134L62.6605 48.868L58.3765 46.3354L63.4795 46.7134Z" fill="#763D16" stroke="#763D16" stroke-width="0.5" stroke-linecap="round" stroke-linejoin="round"/>
<path d="M34.6382 46.7134L39.7538 46.3354L35.4572 48.868L34.6382 46.7134Z" fill="#763D16" stroke="#763D16" stroke-width="0.5" stroke-linecap="round" stroke-linejoin="round"/>
<path d="M58.3765 46.3352L64.0591 43.916L63.7189 45.1886L58.3765 46.3352Z" fill="#763D16" stroke="#763D16" stroke-width="0.5" stroke-linecap="round" stroke-linejoin="round"/>
<path d="M39.7534 46.3352L34.3984 45.1886L34.0708 43.916L39.7534 46.3352Z" fill="#763D16" stroke="#763D16" stroke-width="0.5" stroke-linecap="round" stroke-linejoin="round"/>
<path d="M44.8062 37.8179H53.3112L51.4086 42.9965L44.8062 37.8179Z" fill="#F6851B" stroke="#F6851B" stroke-width="0.5" stroke-linecap="round" stroke-linejoin="round"/>
<path d="M51.4086 42.9965H46.7088L44.8062 37.8179L51.4086 42.9965Z" fill="#F6851B" stroke="#F6851B" stroke-width="0.5" stroke-linecap="round" stroke-linejoin="round"/>
<path d="M64.0588 43.9164L58.3762 46.3356L58.2754 39.834L64.0588 43.9164Z" fill="#763D16" stroke="#763D16" stroke-width="0.5" stroke-linecap="round" stroke-linejoin="round"/>
<path d="M42.0466 46.9404L39.7534 46.3356L39.8416 39.834L42.0466 46.9404Z" fill="#763D16" stroke="#763D16" stroke-width="0.5" stroke-linecap="round" stroke-linejoin="round"/>
<path d="M39.8416 39.834L39.7534 46.3356L34.0708 43.9164L39.8416 39.834Z" fill="#763D16" stroke="#763D16" stroke-width="0.5" stroke-linecap="round" stroke-linejoin="round"/>
<path d="M58.2758 39.834L58.3766 46.3356L56.0708 46.9404L58.2758 39.834Z" fill="#763D16" stroke="#763D16" stroke-width="0.5" stroke-linecap="round" stroke-linejoin="round"/>
<path d="M46.7086 42.9964L34.5874 34L44.806 37.8178L46.7086 42.9964Z" fill="#E4761B" stroke="#E4761B" stroke-width="0.5" stroke-linecap="round" stroke-linejoin="round"/>
<path d="M63.5299 34L51.4087 42.9964L53.3113 37.8178L63.5299 34Z" fill="#E2761B" stroke="#E2761B" stroke-width="0.5" stroke-linecap="round" stroke-linejoin="round"/>
<path d="M55.6802 60.6995L59.0192 55.6973H64.8656L55.6802 60.6995Z" fill="#E4761B" stroke="#E4761B" stroke-width="0.5" stroke-linecap="round" stroke-linejoin="round"/>
<path d="M33.2646 55.6973H39.111L42.4374 60.6995L33.2646 55.6973Z" fill="#E4761B" stroke="#E4761B" stroke-width="0.5" stroke-linecap="round" stroke-linejoin="round"/>
<path d="M58.0615 49.9517L64.8655 55.6973H59.0191L58.0615 49.9517Z" fill="#F6851B" stroke="#F6851B" stroke-width="0.5" stroke-linecap="round" stroke-linejoin="round"/>
<path d="M40.056 49.9518L33.2646 55.6974L35.457 48.8682L40.056 49.9518Z" fill="#F6851B" stroke="#F6851B" stroke-width="0.5" stroke-linecap="round" stroke-linejoin="round"/>
<path d="M39.111 55.6973H33.2646L40.056 49.9517L39.111 55.6973Z" fill="#F6851B" stroke="#F6851B" stroke-width="0.5" stroke-linecap="round" stroke-linejoin="round"/>
<path d="M58.0615 49.9518L62.6605 48.8682L64.8655 55.6974L58.0615 49.9518Z" fill="#F6851B" stroke="#F6851B" stroke-width="0.5" stroke-linecap="round" stroke-linejoin="round"/>
<path d="M39.8418 39.834L46.7088 42.9966L42.0468 46.9404L39.8418 39.834Z" fill="#763D16" stroke="#763D16" stroke-width="0.5" stroke-linecap="round" stroke-linejoin="round"/>
<path d="M56.0707 46.9404L51.4087 42.9966L58.2757 39.834L56.0707 46.9404Z" fill="#763D16" stroke="#763D16" stroke-width="0.5" stroke-linecap="round" stroke-linejoin="round"/>
<path d="M62.6602 48.868L63.4792 46.7134L64.1092 47.167L62.6602 48.868Z" fill="#763D16" stroke="#763D16" stroke-width="0.5" stroke-linecap="round" stroke-linejoin="round"/>
<path d="M35.4568 48.868L34.0078 47.167L34.6378 46.7134L35.4568 48.868Z" fill="#763D16" stroke="#763D16" stroke-width="0.5" stroke-linecap="round" stroke-linejoin="round"/>
<path d="M63.4795 46.7136L63.7189 45.189L64.4875 45.7938L63.4795 46.7136Z" fill="#763D16" stroke="#763D16" stroke-width="0.5" stroke-linecap="round" stroke-linejoin="round"/>
<path d="M34.6379 46.7136L33.6299 45.7938L34.3985 45.189L34.6379 46.7136Z" fill="#763D16" stroke="#763D16" stroke-width="0.5" stroke-linecap="round" stroke-linejoin="round"/>
<path d="M33.3906 44.42L34.071 43.916L34.3986 45.1886L33.3906 44.42Z" fill="#763D16" stroke="#763D16" stroke-width="0.5" stroke-linecap="round" stroke-linejoin="round"/>
<path d="M64.7268 44.42L63.7188 45.1886L64.059 43.916L64.7268 44.42Z" fill="#763D16" stroke="#763D16" stroke-width="0.5" stroke-linecap="round" stroke-linejoin="round"/>
<path d="M35.457 48.8682L42.0468 46.9404L40.056 49.9518L35.457 48.8682Z" fill="#F6851B" stroke="#F6851B" stroke-width="0.5" stroke-linecap="round" stroke-linejoin="round"/>
<path d="M62.6606 48.8682L58.0616 49.9518L56.0708 46.9404L62.6606 48.8682Z" fill="#F6851B" stroke="#F6851B" stroke-width="0.5" stroke-linecap="round" stroke-linejoin="round"/>
<path d="M34.071 43.9162L33 38.7754L39.8418 39.8338L34.071 43.9162Z" fill="#763D16" stroke="#763D16" stroke-width="0.5" stroke-linecap="round" stroke-linejoin="round"/>
<path d="M58.2754 39.8338L65.1172 38.7754L64.0588 43.9162L58.2754 39.8338Z" fill="#763D16" stroke="#763D16" stroke-width="0.5" stroke-linecap="round" stroke-linejoin="round"/>
<path d="M42.0469 46.9404L46.7089 42.9966L47.1373 50.2668L42.0469 46.9404Z" fill="#E4761B" stroke="#E4761B" stroke-width="0.5" stroke-linecap="round" stroke-linejoin="round"/>
<path d="M56.0704 46.9404L58.0612 49.9518L50.98 50.2668L56.0704 46.9404Z" fill="#E4761B" stroke="#E4761B" stroke-width="0.5" stroke-linecap="round" stroke-linejoin="round"/>
<path d="M50.98 50.2668L51.4084 42.9966L56.0704 46.9404L50.98 50.2668Z" fill="#E4761B" stroke="#E4761B" stroke-width="0.5" stroke-linecap="round" stroke-linejoin="round"/>
<path d="M47.1374 50.2668L40.0562 49.9518L42.047 46.9404L47.1374 50.2668Z" fill="#E4761B" stroke="#E4761B" stroke-width="0.5" stroke-linecap="round" stroke-linejoin="round"/>
<path d="M63.5296 34L65.1172 38.7754L58.2754 39.8338L63.5296 34Z" fill="#763D16" stroke="#763D16" stroke-width="0.5" stroke-linecap="round" stroke-linejoin="round"/>
<path d="M34.5874 34L46.7086 42.9964L39.8416 39.8338L34.5874 34Z" fill="#763D16" stroke="#763D16" stroke-width="0.5" stroke-linecap="round" stroke-linejoin="round"/>
<path d="M58.2757 39.8338L51.4087 42.9964L63.5299 34L58.2757 39.8338Z" fill="#763D16" stroke="#763D16" stroke-width="0.5" stroke-linecap="round" stroke-linejoin="round"/>
<path d="M39.8418 39.8338L33 38.7754L34.5876 34L39.8418 39.8338Z" fill="#763D16" stroke="#763D16" stroke-width="0.5" stroke-linecap="round" stroke-linejoin="round"/>
<path d="M42.4372 60.6995L39.1108 55.6973L43.0294 55.7477L42.4372 60.6995Z" fill="#CD6116" stroke="#CD6116" stroke-width="0.5" stroke-linecap="round" stroke-linejoin="round"/>
<path d="M55.6801 60.6995L55.0879 55.7477L59.0191 55.6973L55.6801 60.6995Z" fill="#CD6116" stroke="#CD6116" stroke-width="0.5" stroke-linecap="round" stroke-linejoin="round"/>
<path d="M50.9804 50.2668H47.1374L46.709 42.9966L50.9804 50.2668Z" fill="#F6851B" stroke="#F6851B" stroke-width="0.5" stroke-linecap="round" stroke-linejoin="round"/>
<path d="M46.709 42.9966H51.4088L50.9804 50.2668L46.709 42.9966Z" fill="#F6851B" stroke="#F6851B" stroke-width="0.5" stroke-linecap="round" stroke-linejoin="round"/>
<path d="M43.8235 61.8332L42.4375 60.6992L46.4065 62.5766L43.8235 61.8332Z" fill="#C0AD9E" stroke="#C0AD9E" stroke-width="0.5" stroke-linecap="round" stroke-linejoin="round"/>
<path d="M51.7109 62.5766L55.6799 60.6992L54.2939 61.8332L51.7109 62.5766Z" fill="#C0AD9E" stroke="#C0AD9E" stroke-width="0.5" stroke-linecap="round" stroke-linejoin="round"/>
<path d="M46.3813 61.4048L46.4065 62.5766L42.4375 60.6992L46.3813 61.4048Z" fill="#D7C1B3" stroke="#D7C1B3" stroke-width="0.5" stroke-linecap="round" stroke-linejoin="round"/>
<path d="M51.7487 61.4048L55.6799 60.6992L51.7109 62.5766L51.7487 61.4048Z" fill="#D7C1B3" stroke="#D7C1B3" stroke-width="0.5" stroke-linecap="round" stroke-linejoin="round"/>
<path d="M40.0558 49.9517L43.0294 55.7477L39.1108 55.6973L40.0558 49.9517Z" fill="#F6851B" stroke="#F6851B" stroke-width="0.5" stroke-linecap="round" stroke-linejoin="round"/>
<path d="M59.0191 55.6973L55.0879 55.7477L58.0615 49.9517L59.0191 55.6973Z" fill="#F6851B" stroke="#F6851B" stroke-width="0.5" stroke-linecap="round" stroke-linejoin="round"/>
<path d="M40.0562 49.9517L42.929 52.8623L43.0298 55.7477L40.0562 49.9517Z" fill="#E4751F" stroke="#E4751F" stroke-width="0.5" stroke-linecap="round" stroke-linejoin="round"/>
<path d="M58.0615 49.9517L55.0879 55.7477L55.2013 52.8623L58.0615 49.9517Z" fill="#E4751F" stroke="#E4751F" stroke-width="0.5" stroke-linecap="round" stroke-linejoin="round"/>
<path d="M42.4375 60.6996L46.7089 58.6206L46.3813 61.4052L42.4375 60.6996Z" fill="#D7C1B3" stroke="#D7C1B3" stroke-width="0.5" stroke-linecap="round" stroke-linejoin="round"/>
<path d="M55.6801 60.6996L51.7489 61.4052L51.4087 58.6206L55.6801 60.6996Z" fill="#D7C1B3" stroke="#D7C1B3" stroke-width="0.5" stroke-linecap="round" stroke-linejoin="round"/>
<path d="M46.7089 58.6204L42.4375 60.6994L43.0297 55.7476L46.7089 58.6204Z" fill="#E4761B" stroke="#E4761B" stroke-width="0.5" stroke-linecap="round" stroke-linejoin="round"/>
<path d="M51.4087 58.6204L55.0879 55.7476L55.6801 60.6994L51.4087 58.6204Z" fill="#E4761B" stroke="#E4761B" stroke-width="0.5" stroke-linecap="round" stroke-linejoin="round"/>
<path d="M50.98 50.2667L58.0612 49.9517L55.201 52.8623L50.98 50.2667Z" fill="#CD6116" stroke="#CD6116" stroke-width="0.5" stroke-linecap="round" stroke-linejoin="round"/>
<path d="M42.929 52.8623L40.0562 49.9517L47.1374 50.2667L42.929 52.8623Z" fill="#CD6116" stroke="#CD6116" stroke-width="0.5" stroke-linecap="round" stroke-linejoin="round"/>
<path d="M47.1371 50.2666L45.4361 51.7156L42.9287 52.8622L47.1371 50.2666Z" fill="#CD6116" stroke="#CD6116" stroke-width="0.5" stroke-linecap="round" stroke-linejoin="round"/>
<path d="M55.201 52.8622L52.681 51.7156L50.98 50.2666L55.201 52.8622Z" fill="#CD6116" stroke="#CD6116" stroke-width="0.5" stroke-linecap="round" stroke-linejoin="round"/>
<path d="M55.0877 55.7477L51.6353 53.9081L55.2011 52.8623L55.0877 55.7477Z" fill="#F6851B" stroke="#F6851B" stroke-width="0.5" stroke-linecap="round" stroke-linejoin="round"/>
<path d="M43.0295 55.7477L42.9287 52.8623L46.4819 53.9081L43.0295 55.7477Z" fill="#F6851B" stroke="#F6851B" stroke-width="0.5" stroke-linecap="round" stroke-linejoin="round"/>
<path d="M46.4819 53.9082L42.9287 52.8624L45.4361 51.7158L46.4819 53.9082Z" fill="#233447" stroke="#233447" stroke-width="0.5" stroke-linecap="round" stroke-linejoin="round"/>
<path d="M51.6353 53.9082L52.6811 51.7158L55.2011 52.8624L51.6353 53.9082Z" fill="#233447" stroke="#233447" stroke-width="0.5" stroke-linecap="round" stroke-linejoin="round"/>
<path d="M52.681 51.7156L51.6352 53.908L50.98 50.2666L52.681 51.7156Z" fill="#CD6116" stroke="#CD6116" stroke-width="0.5" stroke-linecap="round" stroke-linejoin="round"/>
<path d="M45.436 51.7156L47.137 50.2666L46.4818 53.908L45.436 51.7156Z" fill="#CD6116" stroke="#CD6116" stroke-width="0.5" stroke-linecap="round" stroke-linejoin="round"/>
<path d="M54.2941 61.8335L51.4717 63.7865L51.7111 62.5769L54.2941 61.8335Z" fill="#C0AD9E" stroke="#C0AD9E" stroke-width="0.5" stroke-linecap="round" stroke-linejoin="round"/>
<path d="M46.4062 62.5769L46.6456 63.7865L43.8232 61.8335L46.4062 62.5769Z" fill="#C0AD9E" stroke="#C0AD9E" stroke-width="0.5" stroke-linecap="round" stroke-linejoin="round"/>
<path d="M51.6354 53.908L50.8164 52.5598L50.9802 50.2666L51.6354 53.908Z" fill="#E2761B" stroke="#E2761B" stroke-width="0.5" stroke-linecap="round" stroke-linejoin="round"/>
<path d="M46.4819 53.908L47.1371 50.2666L47.3009 52.5598L46.4819 53.908Z" fill="#E4751F" stroke="#E4751F" stroke-width="0.5" stroke-linecap="round" stroke-linejoin="round"/>
<path d="M50.98 50.2666L50.8162 52.5598H47.3008L50.98 50.2666Z" fill="#F6851B" stroke="#F6851B" stroke-width="0.5" stroke-linecap="round" stroke-linejoin="round"/>
<path d="M47.301 52.5598L47.1372 50.2666H50.9802L47.301 52.5598Z" fill="#F6851B" stroke="#F6851B" stroke-width="0.5" stroke-linecap="round" stroke-linejoin="round"/>
<path d="M51.6355 53.9082L55.0879 55.7478L51.4087 58.6206L51.6355 53.9082Z" fill="#F6851B" stroke="#F6851B" stroke-width="0.5" stroke-linecap="round" stroke-linejoin="round"/>
<path d="M46.709 58.6206L43.0298 55.7478L46.4822 53.9082L46.709 58.6206Z" fill="#F6851B" stroke="#F6851B" stroke-width="0.5" stroke-linecap="round" stroke-linejoin="round"/>
<path d="M46.4819 53.9082L47.3135 58.2048L46.7087 58.6206L46.4819 53.9082Z" fill="#F6851B" stroke="#F6851B" stroke-width="0.5" stroke-linecap="round" stroke-linejoin="round"/>
<path d="M51.4085 58.6206L50.8037 58.2048L51.6353 53.9082L51.4085 58.6206Z" fill="#F6851B" stroke="#F6851B" stroke-width="0.5" stroke-linecap="round" stroke-linejoin="round"/>
<path d="M50.8163 52.5596L51.6353 53.9078L50.8037 58.2044L50.8163 52.5596Z" fill="#E4751F" stroke="#E4751F" stroke-width="0.5" stroke-linecap="round" stroke-linejoin="round"/>
<path d="M47.3009 52.5596L47.3135 58.2044L46.4819 53.9078L47.3009 52.5596Z" fill="#E4751F" stroke="#E4751F" stroke-width="0.5" stroke-linecap="round" stroke-linejoin="round"/>
<path d="M47.3008 52.5596H50.8162L50.8036 58.2044L47.3008 52.5596Z" fill="#F6851B" stroke="#F6851B" stroke-width="0.5" stroke-linecap="round" stroke-linejoin="round"/>
<path d="M50.8036 58.2044H47.3134L47.3008 52.5596L50.8036 58.2044Z" fill="#F6851B" stroke="#F6851B" stroke-width="0.5" stroke-linecap="round" stroke-linejoin="round"/>
<path d="M51.7489 61.4048L51.7111 62.5766L51.4717 63.7862L51.7489 61.4048Z" fill="#C0AD9E" stroke="#C0AD9E" stroke-width="0.5" stroke-linecap="round" stroke-linejoin="round"/>
<path d="M46.6459 63.7862L46.4065 62.5766L46.3813 61.4048L46.6459 63.7862Z" fill="#C0AD9E" stroke="#C0AD9E" stroke-width="0.5" stroke-linecap="round" stroke-linejoin="round"/>
<path d="M46.3813 61.4051L46.6837 61.1279L46.6459 63.7865L46.3813 61.4051Z" fill="#C0AD9E" stroke="#C0AD9E" stroke-width="0.5" stroke-linecap="round" stroke-linejoin="round"/>
<path d="M51.4714 63.7865L51.4336 61.1279L51.7486 61.4051L51.4714 63.7865Z" fill="#C0AD9E" stroke="#C0AD9E" stroke-width="0.5" stroke-linecap="round" stroke-linejoin="round"/>
<path d="M46.646 63.7865L46.6838 61.1279H51.434L46.646 63.7865Z" fill="#C0AD9E" stroke="#C0AD9E" stroke-width="0.5" stroke-linecap="round" stroke-linejoin="round"/>
<path d="M51.434 61.1279L51.4718 63.7865H46.646L51.434 61.1279Z" fill="#C0AD9E" stroke="#C0AD9E" stroke-width="0.5" stroke-linecap="round" stroke-linejoin="round"/>
<path d="M51.4087 58.6206L51.7489 61.4052L51.4339 61.128L51.4087 58.6206Z" fill="#161616" stroke="#161616" stroke-width="0.5" stroke-linecap="round" stroke-linejoin="round"/>
<path d="M46.6837 61.128L46.3813 61.4052L46.7089 58.6206L46.6837 61.128Z" fill="#161616" stroke="#161616" stroke-width="0.5" stroke-linecap="round" stroke-linejoin="round"/>
<path d="M46.7088 58.6206L46.8978 59.2128L46.6836 61.128L46.7088 58.6206Z" fill="#161616" stroke="#161616" stroke-width="0.5" stroke-linecap="round" stroke-linejoin="round"/>
<path d="M51.4339 61.128L51.2197 59.2128L51.4087 58.6206L51.4339 61.128Z" fill="#161616" stroke="#161616" stroke-width="0.5" stroke-linecap="round" stroke-linejoin="round"/>
<path d="M47.276 58.7718L46.898 59.2128L46.709 58.6206L47.276 58.7718Z" fill="#161616" stroke="#161616" stroke-width="0.5" stroke-linecap="round" stroke-linejoin="round"/>
<path d="M51.4088 58.6206L51.2198 59.2128L50.8418 58.7718L51.4088 58.6206Z" fill="#161616" stroke="#161616" stroke-width="0.5" stroke-linecap="round" stroke-linejoin="round"/>
<path d="M50.8415 58.7716L50.8037 58.2046L51.4085 58.6204L50.8415 58.7716Z" fill="#161616" stroke="#161616" stroke-width="0.5" stroke-linecap="round" stroke-linejoin="round"/>
<path d="M46.709 58.6204L47.3138 58.2046L47.276 58.7716L46.709 58.6204Z" fill="#161616" stroke="#161616" stroke-width="0.5" stroke-linecap="round" stroke-linejoin="round"/>
<path d="M50.8039 58.2046L50.8417 58.7716H47.2759L50.8039 58.2046Z" fill="#161616" stroke="#161616" stroke-width="0.5" stroke-linecap="round" stroke-linejoin="round"/>
<path d="M47.2759 58.7716L47.3137 58.2046H50.8039L47.2759 58.7716Z" fill="#161616" stroke="#161616" stroke-width="0.5" stroke-linecap="round" stroke-linejoin="round"/>
<path d="M46.8979 59.2124H51.2197L51.4339 61.1276L46.8979 59.2124Z" fill="#161616" stroke="#161616" stroke-width="0.5" stroke-linecap="round" stroke-linejoin="round"/>
<path d="M51.4338 61.1276H46.6836L46.8978 59.2124L51.4338 61.1276Z" fill="#161616" stroke="#161616" stroke-width="0.5" stroke-linecap="round" stroke-linejoin="round"/>
<path d="M46.8979 59.2125L47.2759 58.7715H50.8417L46.8979 59.2125Z" fill="#161616" stroke="#161616" stroke-width="0.5" stroke-linecap="round" stroke-linejoin="round"/>
<path d="M50.8417 58.7715L51.2197 59.2125H46.8979L50.8417 58.7715Z" fill="#161616" stroke="#161616" stroke-width="0.5" stroke-linecap="round" stroke-linejoin="round"/>
<defs>
<filter id="filter0_d" x="0.841797" y="0.34668" width="96.7828" height="96.7828" filterUnits="userSpaceOnUse" color-interpolation-filters="sRGB">
<feFlood flood-opacity="0" result="BackgroundImageFix"/>
<feColorMatrix in="SourceAlpha" type="matrix" values="0 0 0 0 0 0 0 0 0 0 0 0 0 0 0 0 0 0 127 0"/>
<feOffset/>
<feGaussianBlur stdDeviation="1"/>
<feColorMatrix type="matrix" values="0 0 0 0 0 0 0 0 0 0 0 0 0 0 0 0 0 0 0.05 0"/>
<feBlend mode="normal" in2="BackgroundImageFix" result="effect1_dropShadow"/>
<feBlend mode="normal" in="SourceGraphic" in2="effect1_dropShadow" result="shape"/>
</filter>
</defs>
</svg>
