<?xml version="1.0" encoding="UTF-8" standalone="no"?>
<svg
   xmlns:dc="http://purl.org/dc/elements/1.1/"
   xmlns:cc="http://creativecommons.org/ns#"
   xmlns:rdf="http://www.w3.org/1999/02/22-rdf-syntax-ns#"
   xmlns:svg="http://www.w3.org/2000/svg"
   xmlns="http://www.w3.org/2000/svg"
   xmlns:sodipodi="http://sodipodi.sourceforge.net/DTD/sodipodi-0.dtd"
   xmlns:inkscape="http://www.inkscape.org/namespaces/inkscape"
   version="1.1"
   id="Capa_1"
   x="0px"
   y="0px"
   viewBox="0 0 517.20003 517.20003"
   xml:space="preserve"
   sodipodi:docname="sent.svg"
   width="517.20001"
   height="517.20001"
   inkscape:version="1.0.1 (3bc2e813f5, 2020-09-07)"><metadata
   id="metadata1200"><rdf:RDF><cc:Work
       rdf:about=""><dc:format>image/svg+xml</dc:format><dc:type
         rdf:resource="http://purl.org/dc/dcmitype/StillImage" /><dc:title /></cc:Work></rdf:RDF></metadata><defs
   id="defs1198">
	

		
	
			
			
			
			
		</defs><sodipodi:namedview
   pagecolor="#ffffff"
   bordercolor="#666666"
   borderopacity="1"
   objecttolerance="10"
   gridtolerance="10"
   guidetolerance="10"
   inkscape:pageopacity="0"
   inkscape:pageshadow="2"
   inkscape:window-width="1853"
   inkscape:window-height="1025"
   id="namedview1196"
   showgrid="false"
   fit-margin-top="0"
   fit-margin-left="0"
   fit-margin-right="0"
   fit-margin-bottom="0"
   inkscape:zoom="1.2795514"
   inkscape:cx="285.83759"
   inkscape:cy="321.79548"
   inkscape:window-x="67"
   inkscape:window-y="27"
   inkscape:window-maximized="1"
   inkscape:current-layer="Capa_1"
   inkscape:document-rotation="0" />

<g
   id="g1165"
   transform="translate(61.739439,66.456673)">
</g>
<g
   id="g1167"
   transform="translate(61.739439,66.456673)">
</g>
<g
   id="g1169"
   transform="translate(61.739439,66.456673)">
</g>
<g
   id="g1171"
   transform="translate(61.739439,66.456673)">
</g>
<g
   id="g1173"
   transform="translate(61.739439,66.456673)">
</g>
<g
   id="g1175"
   transform="translate(61.739439,66.456673)">
</g>
<g
   id="g1177"
   transform="translate(61.739439,66.456673)">
</g>
<g
   id="g1179"
   transform="translate(61.739439,66.456673)">
</g>
<g
   id="g1181"
   transform="translate(61.739439,66.456673)">
</g>
<g
   id="g1183"
   transform="translate(61.739439,66.456673)">
</g>
<g
   id="g1185"
   transform="translate(61.739439,66.456673)">
</g>
<g
   id="g1187"
   transform="translate(61.739439,66.456673)">
</g>
<g
   id="g1189"
   transform="translate(61.739439,66.456673)">
</g>
<g
   id="g1191"
   transform="translate(61.739439,66.456673)">
</g>
<g
   id="g1193"
   transform="translate(61.739439,66.456673)">
</g>
<g
   id="g888"
   transform="translate(0,24.249995)"
   style="fill:#197ad8;fill-opacity:1"><path
     d="m 254.47009,88.316177 c -0.321,0.214685 -0.618,0.452686 -0.885,0.711594 l -99.265,78.135249 c -3.174,2.36555 -3.362,6.35288 -0.42,8.90496 1.459,1.26559 3.499,1.99487 5.645,2.01739 h 52.245 v 101.2391 c 0,3.78068 1.045,7.98189 5.224,7.98189 h 83.592 c 5.301,-0.49933 9.557,-3.75013 10.449,-7.98189 v -101.2391 h 47.02 c 3.126,-0.0611 5.947,-1.51968 7.314,-3.78069 v -2.52073 c -0.086,-1.75526 -1.024,-3.41403 -2.612,-4.62093 l -98.743,-78.135249 c -2.397,-2.320515 -6.679,-2.638923 -9.564,-0.711594 z"
     id="path1151"
     style="fill:#197ad8;fill-opacity:1;stroke-width:8.96693;stroke-miterlimit:4;stroke-dasharray:none" /><path
     d="m 208.96701,311.11335 c 0,4.328 3.509,7.837 7.837,7.837 h 83.592 c 4.328,0 7.837,-3.509 7.837,-7.837 0,-4.328 -3.509,-7.837 -7.837,-7.837 h -83.592 c -4.329,0.001 -7.837,3.509 -7.837,7.837 z"
     id="path1153"
     style="fill:#197ad8;fill-opacity:1;stroke-width:10;stroke-miterlimit:4;stroke-dasharray:none" /><path
     d="m 208.96701,342.46035 c 0,4.328 3.509,7.837 7.837,7.837 h 83.592 c 4.328,0 7.837,-3.509 7.837,-7.837 0,-4.328 -3.509,-7.837 -7.837,-7.837 h -83.592 c -4.329,10e-4 -7.837,3.509 -7.837,7.837 z"
     id="path1155"
     style="fill:#197ad8;fill-opacity:1;stroke-width:10;stroke-miterlimit:4;stroke-dasharray:none" /><path
     d="m 208.96701,373.80735 c 0,4.328 3.509,7.837 7.837,7.837 h 83.592 c 4.328,0 7.837,-3.509 7.837,-7.837 0,-4.328 -3.509,-7.837 -7.837,-7.837 h -83.592 c -4.329,10e-4 -7.837,3.509 -7.837,7.837 z"
     id="path1157"
     style="fill:#197ad8;fill-opacity:1;stroke-width:10;stroke-miterlimit:4;stroke-dasharray:none" /></g><circle
   style="fill:none;fill-opacity:1;stroke:#197ad8;stroke-width:10;stroke-miterlimit:4;stroke-dasharray:none;stroke-opacity:1"
   cx="258.60001"
   cy="258.60001"
   r="253.60001"
   id="circle1035" /></svg>
