<?xml version="1.0" encoding="UTF-8" standalone="no"?>
<svg
   xmlns:dc="http://purl.org/dc/elements/1.1/"
   xmlns:cc="http://creativecommons.org/ns#"
   xmlns:rdf="http://www.w3.org/1999/02/22-rdf-syntax-ns#"
   xmlns:svg="http://www.w3.org/2000/svg"
   xmlns="http://www.w3.org/2000/svg"
   xmlns:sodipodi="http://sodipodi.sourceforge.net/DTD/sodipodi-0.dtd"
   xmlns:inkscape="http://www.inkscape.org/namespaces/inkscape"
   version="1.1"
   id="Layer_1"
   x="0px"
   y="0px"
   viewBox="0 0 507.2 507.2"
   style="enable-background:new 0 0 507.2 507.2;"
   xml:space="preserve"
   sodipodi:docname="success.svg"
   inkscape:version="1.0.1 (3bc2e813f5, 2020-09-07)"><metadata
   id="metadata1080"><rdf:RDF><cc:Work
       rdf:about=""><dc:format>image/svg+xml</dc:format><dc:type
         rdf:resource="http://purl.org/dc/dcmitype/StillImage" /></cc:Work></rdf:RDF></metadata><defs
   id="defs1078" /><sodipodi:namedview
   pagecolor="#ffffff"
   bordercolor="#666666"
   borderopacity="1"
   objecttolerance="10"
   gridtolerance="10"
   guidetolerance="10"
   inkscape:pageopacity="0"
   inkscape:pageshadow="2"
   inkscape:window-width="1853"
   inkscape:window-height="1025"
   id="namedview1076"
   showgrid="false"
   inkscape:zoom="1.182229"
   inkscape:cx="252.36127"
   inkscape:cy="240.96492"
   inkscape:window-x="67"
   inkscape:window-y="27"
   inkscape:window-maximized="1"
   inkscape:current-layer="Layer_1" />
<circle
   style="fill:#32ce7c;fill-opacity:1"
   cx="253.6"
   cy="253.6"
   r="253.6"
   id="circle1035" />
<path
   style="fill:#0aab6e;fill-opacity:1"
   d="M188.8,368l130.4,130.4c108-28.8,188-127.2,188-244.8c0-2.4,0-4.8,0-7.2L404.8,152L188.8,368z"
   id="path1037" />
<g
   id="g1043">
	<path
   style="fill:#FFFFFF;"
   d="M260,310.4c11.2,11.2,11.2,30.4,0,41.6l-23.2,23.2c-11.2,11.2-30.4,11.2-41.6,0L93.6,272.8   c-11.2-11.2-11.2-30.4,0-41.6l23.2-23.2c11.2-11.2,30.4-11.2,41.6,0L260,310.4z"
   id="path1039" />
	<path
   style="fill:#FFFFFF;"
   d="M348.8,133.6c11.2-11.2,30.4-11.2,41.6,0l23.2,23.2c11.2,11.2,11.2,30.4,0,41.6l-176,175.2   c-11.2,11.2-30.4,11.2-41.6,0l-23.2-23.2c-11.2-11.2-11.2-30.4,0-41.6L348.8,133.6z"
   id="path1041" />
</g>
<g
   id="g1045">
</g>
<g
   id="g1047">
</g>
<g
   id="g1049">
</g>
<g
   id="g1051">
</g>
<g
   id="g1053">
</g>
<g
   id="g1055">
</g>
<g
   id="g1057">
</g>
<g
   id="g1059">
</g>
<g
   id="g1061">
</g>
<g
   id="g1063">
</g>
<g
   id="g1065">
</g>
<g
   id="g1067">
</g>
<g
   id="g1069">
</g>
<g
   id="g1071">
</g>
<g
   id="g1073">
</g>
</svg>
