<?xml version="1.0" encoding="UTF-8" standalone="no"?>
<svg
   xmlns:dc="http://purl.org/dc/elements/1.1/"
   xmlns:cc="http://creativecommons.org/ns#"
   xmlns:rdf="http://www.w3.org/1999/02/22-rdf-syntax-ns#"
   xmlns:svg="http://www.w3.org/2000/svg"
   xmlns="http://www.w3.org/2000/svg"
   xmlns:sodipodi="http://sodipodi.sourceforge.net/DTD/sodipodi-0.dtd"
   xmlns:inkscape="http://www.inkscape.org/namespaces/inkscape"
   width="16"
   height="12"
   viewBox="0 0 16 12"
   fill="none"
   version="1.1"
   id="svg881"
   sodipodi:docname="twitter.svg"
   inkscape:version="1.0.1 (3bc2e813f5, 2020-09-07)">
  <metadata
     id="metadata887">
    <rdf:RDF>
      <cc:Work
         rdf:about="">
        <dc:format>image/svg+xml</dc:format>
        <dc:type
           rdf:resource="http://purl.org/dc/dcmitype/StillImage" />
      </cc:Work>
    </rdf:RDF>
  </metadata>
  <defs
     id="defs885" />
  <sodipodi:namedview
     pagecolor="#ffffff"
     bordercolor="#666666"
     borderopacity="1"
     objecttolerance="10"
     gridtolerance="10"
     guidetolerance="10"
     inkscape:pageopacity="0"
     inkscape:pageshadow="2"
     inkscape:window-width="1853"
     inkscape:window-height="1025"
     id="namedview883"
     showgrid="false"
     inkscape:zoom="70.833333"
     inkscape:cx="8"
     inkscape:cy="6"
     inkscape:window-x="67"
     inkscape:window-y="27"
     inkscape:window-maximized="1"
     inkscape:current-layer="svg881" />
  <path
     d="M13.5644 2.94028C13.574 3.06932 13.574 3.19838 13.574 3.32742C13.574 7.26315 10.4563 11.798 4.75809 11.798C3.00258 11.798 1.37179 11.3095 0 10.4616C0.249425 10.4892 0.489224 10.4984 0.748246 10.4984C2.19675 10.4984 3.53019 10.0284 4.59501 9.22645C3.23281 9.19879 2.09125 8.34159 1.69793 7.16178C1.88981 7.18941 2.08165 7.20785 2.28312 7.20785C2.56131 7.20785 2.83952 7.17097 3.09852 7.10648C1.67877 6.82994 0.613922 5.63172 0.613922 4.18461V4.14776C1.0264 4.36897 1.50609 4.50723 2.01448 4.52564C1.17989 3.99103 0.633115 3.07854 0.633115 2.0462C0.633115 1.49318 0.786573 0.986232 1.05519 0.543802C2.58047 2.35038 4.87319 3.53016 7.44407 3.65922C7.39612 3.43801 7.36733 3.2076 7.36733 2.97717C7.36733 1.33648 8.74872 0 10.4658 0C11.358 0 12.1638 0.359471 12.7298 0.940156C13.43 0.811121 14.1015 0.562244 14.6963 0.221215C14.4661 0.912522 13.9768 1.49321 13.3341 1.86187C13.9577 1.79738 14.562 1.63143 15.1184 1.40103C14.6964 1.99091 14.1687 2.51627 13.5644 2.94028Z"
     fill="#585861"
     id="path879"
     style="fill:#808080" />
</svg>
