<?xml version="1.0" encoding="UTF-8" standalone="no"?>
<svg
   xmlns:dc="http://purl.org/dc/elements/1.1/"
   xmlns:cc="http://creativecommons.org/ns#"
   xmlns:rdf="http://www.w3.org/1999/02/22-rdf-syntax-ns#"
   xmlns:svg="http://www.w3.org/2000/svg"
   xmlns="http://www.w3.org/2000/svg"
   xmlns:sodipodi="http://sodipodi.sourceforge.net/DTD/sodipodi-0.dtd"
   xmlns:inkscape="http://www.inkscape.org/namespaces/inkscape"
   width="7.6729202mm"
   height="7.6729202mm"
   viewBox="0 0 7.6729202 7.6729202"
   version="1.1"
   id="svg8"
   inkscape:version="1.0.1 (3bc2e813f5, 2020-09-07)"
   sodipodi:docname="wallet-icon-dark.svg">
  <defs
     id="defs2" />
  <sodipodi:namedview
     id="base"
     pagecolor="#ffffff"
     bordercolor="#666666"
     borderopacity="1.0"
     inkscape:pageopacity="0.0"
     inkscape:pageshadow="2"
     inkscape:zoom="15.839192"
     inkscape:cx="16.485298"
     inkscape:cy="15.393166"
     inkscape:document-units="mm"
     inkscape:current-layer="layer1"
     inkscape:document-rotation="0"
     showgrid="false"
     fit-margin-top="0"
     fit-margin-left="0"
     fit-margin-right="0"
     fit-margin-bottom="0"
     inkscape:window-width="1853"
     inkscape:window-height="1025"
     inkscape:window-x="67"
     inkscape:window-y="27"
     inkscape:window-maximized="1" />
  <metadata
     id="metadata5">
    <rdf:RDF>
      <cc:Work
         rdf:about="">
        <dc:format>image/svg+xml</dc:format>
        <dc:type
           rdf:resource="http://purl.org/dc/dcmitype/StillImage" />
        <dc:title></dc:title>
      </cc:Work>
    </rdf:RDF>
  </metadata>
  <g
     inkscape:label="Layer 1"
     inkscape:groupmode="layer"
     id="layer1"
     transform="translate(-100.67592,-148.03119)">
    <path
       fill-rule="evenodd"
       clip-rule="evenodd"
       d="m 104.51238,155.70411 c 2.11881,0 3.83646,-1.71765 3.83646,-3.83646 0,-2.11882 -1.71765,-3.83646 -3.83646,-3.83646 -2.11882,0 -3.83646,1.71764 -3.83646,3.83646 0,2.11881 1.71764,3.83646 3.83646,3.83646 z"
       fill="#ebedf2"
       id="path905"
       style="opacity:0;fill:#000000;fill-opacity:1;stroke-width:0.264583" />
    <g
       id="g935"
       transform="matrix(1.2071088,0,0,1.2071088,-31.920609,-30.408875)">
      <path
         d="m 113.07224,150.66442 v 0.67152 c 0,0.12858 0.10477,0.23812 0.23812,0.23812 h 1.47638 v 0.77629 c 0,0.17621 -0.14288,0.31909 -0.31433,0.31909 h -3.18135 c -0.17145,0 -0.31432,-0.14288 -0.31432,-0.31909 v -2.69558 c 0,-0.17621 0.14287,-0.31908 0.31432,-0.31908 h 3.18135 c 0.17621,0 0.31433,0.14287 0.31433,0.31908 v 0.77629 h -1.47638 c -0.13335,0 -0.23812,0.10478 -0.23812,0.23336 z"
         fill="#001c3a"
         id="path907"
         style="opacity:1;fill:#cccccc;fill-opacity:1;stroke-width:0.264583" />
      <path
         opacity="0.15"
         fill-rule="evenodd"
         clip-rule="evenodd"
         d="m 113.40561,150.62156 h 1.61925 c 0.0286,0 0.0476,0.0191 0.0476,0.0429 v 0.67152 c 0,0.0286 -0.0238,0.0476 -0.0476,0.0476 h -1.61925 c -0.0286,0 -0.0476,-0.0238 -0.0476,-0.0476 v -0.67152 c 0,-0.0238 0.0238,-0.0429 0.0476,-0.0429 z m 0.14288,0.381 c 0,0.0524 0.0429,0.0953 0.0952,0.0953 0.0524,0 0.0953,-0.0429 0.0953,-0.0953 0,-0.0524 -0.0429,-0.0952 -0.0953,-0.0952 -0.0524,0 -0.0952,0.0429 -0.0952,0.0952 z"
         fill="#001c3a"
         id="path909"
         style="opacity:1;fill:#e6e6e6;fill-opacity:1;stroke-width:0.264583" />
    </g>
  </g>
</svg>
