<svg width="29" height="29" viewBox="0 0 29 29" fill="none" xmlns="http://www.w3.org/2000/svg">
<path fill-rule="evenodd" clip-rule="evenodd" d="M14.5 29C22.5081 29 29 22.5081 29 14.5C29 6.49187 22.5081 0 14.5 0C6.49187 0 0 6.49187 0 14.5C0 22.5081 6.49187 29 14.5 29Z" fill="#EBEDF2"/>
<g opacity="0.2">
<path d="M15.92 13.022V15.56C15.92 16.046 16.316 16.46 16.82 16.46H22.4V19.394C22.4 20.06 21.86 20.6 21.212 20.6H9.188C8.54 20.6 8 20.06 8 19.394V9.206C8 8.54 8.54 8 9.188 8H21.212C21.878 8 22.4 8.54 22.4 9.206V12.14H16.82C16.316 12.14 15.92 12.536 15.92 13.022Z" fill="#001C3A"/>
<path opacity="0.75" fill-rule="evenodd" clip-rule="evenodd" d="M17.18 12.86H23.3C23.408 12.86 23.48 12.932 23.48 13.022V15.56C23.48 15.668 23.39 15.74 23.3 15.74H17.18C17.072 15.74 17 15.65 17 15.56V13.022C17 12.932 17.09 12.86 17.18 12.86ZM17.72 14.3C17.72 14.498 17.882 14.66 18.08 14.66C18.278 14.66 18.44 14.498 18.44 14.3C18.44 14.102 18.278 13.94 18.08 13.94C17.882 13.94 17.72 14.102 17.72 14.3Z" fill="#001C3A"/>
</g>
</svg>
